# Blender v2.80 (sub 75) OBJ File: 'untitled.blend'
# www.blender.org
mtllib connector1.mtl
o Connector.Central.Tube_Circle.006
v 0.866026 0.200000 -0.000000
v 0.866026 0.192388 0.038268
v 0.866026 0.170711 0.070711
v 0.866026 0.138268 0.092388
v 0.866026 0.100000 0.100000
v 0.866026 0.061732 0.092388
v 0.866026 0.029289 0.070711
v 0.866026 0.007612 0.038268
v 0.866026 0.000000 0.000000
v 0.866026 0.007612 -0.038268
v 0.866026 0.029289 -0.070711
v 0.866026 0.061732 -0.092388
v 0.866026 0.100000 -0.100000
v 0.866026 0.138268 -0.092388
v 0.866026 0.170711 -0.070711
v 0.866026 0.192388 -0.038268
v 0.448668 0.200000 0.000000
v 0.448668 0.192388 0.038268
v 0.448668 0.170711 0.070711
v 0.448668 0.138268 0.092388
v 0.448668 0.100000 0.100000
v 0.448668 0.061732 0.092388
v 0.448668 0.029289 0.070711
v 0.448668 0.007612 0.038268
v 0.448668 0.000000 0.000000
v 0.448668 0.007612 -0.038268
v 0.448668 0.029289 -0.070711
v 0.448668 0.061732 -0.092388
v 0.448668 0.100000 -0.100000
v 0.448668 0.138268 -0.092388
v 0.448668 0.170711 -0.070711
v 0.448668 0.192388 -0.038268
vt 0.000000 0.000000
vt 0.000000 0.000000
vt 0.000000 0.000000
vt 0.000000 0.000000
vt 0.000000 0.000000
vt 0.000000 0.000000
vt 0.000000 0.000000
vt 0.000000 0.000000
vt 0.000000 0.000000
vt 0.000000 0.000000
vt 0.000000 0.000000
vt 0.000000 0.000000
vt 0.000000 0.000000
vt 0.000000 0.000000
vt 0.000000 0.000000
vt 0.000000 0.000000
vt 0.000000 0.000000
vt 0.000000 0.000000
vt 0.000000 0.000000
vt 0.000000 0.000000
vt 0.000000 0.000000
vt 0.000000 0.000000
vt 0.000000 0.000000
vt 0.000000 0.000000
vt 0.000000 0.000000
vt 0.000000 0.000000
vt 0.000000 0.000000
vt 0.000000 0.000000
vt 0.000000 0.000000
vt 0.000000 0.000000
vt 0.000000 0.000000
vt 0.000000 0.000000
vn 0.0000 -0.1951 -0.9808
vn 0.0000 -0.1951 0.9808
vn 0.0000 0.1951 -0.9808
vn 0.0000 -0.5556 0.8315
vn 0.0000 0.5556 -0.8315
vn 0.0000 -0.8315 0.5556
vn 0.0000 0.8315 -0.5556
vn 0.0000 -0.9808 0.1951
vn 0.0000 0.9808 0.1951
vn 0.0000 0.9808 -0.1951
vn 0.0000 -0.9808 -0.1951
vn 0.0000 0.8315 0.5556
vn 0.0000 -0.8315 -0.5556
vn 0.0000 0.5556 0.8315
vn 0.0000 -0.5556 -0.8315
vn 0.0000 0.1951 0.9808
vn -1.0000 0.0000 0.0000
vn 1.0000 0.0000 0.0000
usemtl ConnectorMetal1
s off
f 13/1/1 12/2/1 28/3/1 29/4/1
f 6/5/2 5/6/2 21/7/2 22/8/2
f 14/9/3 13/1/3 29/4/3 30/10/3
f 7/11/4 6/5/4 22/8/4 23/12/4
f 15/13/5 14/9/5 30/10/5 31/14/5
f 8/15/6 7/11/6 23/12/6 24/16/6
f 16/17/7 15/13/7 31/14/7 32/18/7
f 9/19/8 8/15/8 24/16/8 25/20/8
f 2/21/9 1/22/9 17/23/9 18/24/9
f 1/22/10 16/17/10 32/18/10 17/23/10
f 10/25/11 9/19/11 25/20/11 26/26/11
f 3/27/12 2/21/12 18/24/12 19/28/12
f 11/29/13 10/25/13 26/26/13 27/30/13
f 4/31/14 3/27/14 19/28/14 20/32/14
f 12/2/15 11/29/15 27/30/15 28/3/15
f 5/6/16 4/31/16 20/32/16 21/7/16
f 18/24/17 17/23/17 32/18/17 31/14/17 30/10/17 29/4/17 28/3/17 27/30/17 26/26/17 25/20/17 24/16/17 23/12/17 22/8/17 21/7/17 20/32/17 19/28/17
f 2/21/18 3/27/18 4/31/18 5/6/18 6/5/18 7/11/18 8/15/18 9/19/18 10/25/18 11/29/18 12/2/18 13/1/18 14/9/18 15/13/18 16/17/18 1/22/18
o Connector.Central.Supports_Circle.007
v 0.808469 0.107356 -0.000000
v 0.808469 0.052064 0.109133
v 0.808469 0.000000 0.154337
v 0.788807 0.000000 0.154337
v 0.788807 0.052064 0.109133
v 0.788807 0.107356 -0.000000
v 0.808469 0.000000 -0.154337
v 0.808469 0.052064 -0.109133
v 0.788807 0.000000 -0.154337
v 0.788807 0.052064 -0.109133
v 0.528789 0.107356 -0.000000
v 0.528789 0.052064 0.109133
v 0.528789 0.000000 0.154337
v 0.509126 0.000000 0.154337
v 0.509126 0.052064 0.109133
v 0.509126 0.107356 -0.000000
v 0.528789 0.000000 -0.154337
v 0.528789 0.052064 -0.109133
v 0.509126 0.000000 -0.154337
v 0.509126 0.052064 -0.109133
vt 0.000000 0.000000
vt 0.000000 0.000000
vt 0.000000 0.000000
vt 0.000000 0.000000
vt 0.000000 0.000000
vt 0.000000 0.000000
vt 0.000000 0.000000
vt 0.000000 0.000000
vt 0.000000 0.000000
vt 0.000000 0.000000
vt 0.000000 0.000000
vt 0.000000 0.000000
vt 0.000000 0.000000
vt 0.000000 0.000000
vt 0.000000 0.000000
vt 0.000000 0.000000
vt 0.000000 0.000000
vt 0.000000 0.000000
vt 0.000000 0.000000
vt 0.000000 0.000000
vn -1.0000 0.0000 0.0000
vn 1.0000 0.0000 0.0000
vn -0.0000 -0.8920 -0.4520
vn -0.0000 -0.8920 0.4520
vn 0.0000 1.0000 0.0000
vn 0.0000 -0.6556 -0.7551
vn 0.0000 -0.6556 0.7551
usemtl ConnectorMetal1
s off
f 34/33/19 33/34/19 40/35/19 39/36/19 35/37/19
f 37/38/20 36/39/20 41/40/20 42/41/20 38/42/20
f 33/34/21 34/33/21 37/38/21 38/42/21
f 40/35/22 33/34/22 38/42/22 42/41/22
f 35/37/23 39/36/23 41/40/23 36/39/23
f 34/33/24 35/37/24 36/39/24 37/38/24
f 39/36/25 40/35/25 42/41/25 41/40/25
f 44/43/19 43/44/19 50/45/19 49/46/19 45/47/19
f 47/48/20 46/49/20 51/50/20 52/51/20 48/52/20
f 43/44/21 44/43/21 47/48/21 48/52/21
f 50/45/22 43/44/22 48/52/22 52/51/22
f 45/47/23 49/46/23 51/50/23 46/49/23
f 44/43/24 45/47/24 46/49/24 47/48/24
f 49/46/25 50/45/25 52/51/25 51/50/25
