# Blender v2.80 (sub 75) OBJ File: 'basicTurret2.blend'
# www.blender.org
mtllib floor2.mtl
o Circle.002_Circle.004
v 0.000000 -0.000202 -1.005554
v -0.870835 -0.000202 -0.502777
v -0.870835 -0.000202 0.502777
v 0.000000 -0.000202 1.005554
v 0.870835 -0.000202 0.502777
v 0.870835 -0.000202 -0.502777
v -0.847196 0.036164 -0.489129
v -0.000000 0.036164 -0.978257
v -0.847196 0.036164 0.489129
v 0.000000 0.036164 0.978257
v 0.847196 0.036164 0.489129
v 0.847196 0.036164 -0.489129
v -0.865341 0.036164 -0.499605
v -0.870835 0.030670 -0.502777
v 0.000000 0.030670 -1.005554
v -0.000000 0.036164 -0.999210
v -0.865341 0.036164 0.499605
v -0.870835 0.030670 0.502777
v 0.000000 0.036164 0.999210
v 0.000000 0.030670 1.005554
v 0.865341 0.036164 0.499605
v 0.870835 0.030670 0.502777
v 0.865341 0.036164 -0.499605
v 0.870835 0.030670 -0.502777
v 0.843800 0.059164 0.489129
v 0.847196 0.056334 0.489129
v -0.843821 0.059164 0.487809
v -0.847196 0.056334 0.489129
v 0.843821 0.059164 -0.487809
v 0.847196 0.056334 -0.489129
v -0.843800 0.059164 -0.489129
v -0.847196 0.056334 -0.489129
v -0.001089 0.059164 -0.975618
v -0.000000 0.056334 -0.978257
v 0.001089 0.059164 0.975618
v 0.000000 0.056334 0.978257
vt 0.000000 0.000000
vt 0.000000 0.000000
vt 0.000000 0.000000
vt 0.000000 0.000000
vt 0.000000 0.000000
vt 0.000000 0.000000
vt 0.000000 0.000000
vt 0.000000 0.000000
vt 0.000000 0.000000
vt 0.000000 0.000000
vt 0.000000 0.000000
vt 0.000000 0.000000
vt 0.000000 0.000000
vt 0.000000 0.000000
vt 0.000000 0.000000
vt 0.000000 0.000000
vt 0.000000 0.000000
vt 0.000000 0.000000
vt 0.000000 0.000000
vt 0.000000 0.000000
vt 0.000000 0.000000
vt 0.000000 0.000000
vt 0.000000 0.000000
vt 0.000000 0.000000
vt 0.000000 0.000000
vt 0.000000 0.000000
vt 0.000000 0.000000
vt 0.000000 0.000000
vt 0.000000 0.000000
vt 0.000000 0.000000
vt 0.000000 0.000000
vt 0.000000 0.000000
vt 0.000000 0.000000
vt 0.000000 0.000000
vt 0.000000 0.000000
vt 0.000000 0.000000
vn 0.0000 -1.0000 0.0000
vn 0.5000 0.0000 0.8660
vn 0.5000 0.0000 -0.8660
vn 0.0000 1.0000 0.0000
vn -0.5000 0.0000 -0.8660
vn -1.0000 0.0000 0.0000
vn -0.5000 0.0000 0.8660
vn 1.0000 0.0000 0.0000
vn -0.3536 0.7071 -0.6124
vn -0.7071 0.7071 0.0000
vn -0.3536 0.7071 0.6124
vn 0.3536 0.7071 0.6124
vn 0.7071 0.7071 0.0000
vn 0.3536 0.7071 -0.6124
vn -0.4273 0.5193 -0.7401
vn -0.6414 0.7672 -0.0000
vn 0.4273 0.5193 0.7401
vn 0.6414 0.7672 0.0000
usemtl None
s off
f 3/1/1 5/2/1 4/3/1
f 2/4/1 1/5/1 6/6/1
f 2/4/1 6/6/1 3/1/1
f 3/1/1 6/6/1 5/2/1
f 11/7/2 26/8/2 36/9/2 10/10/2
f 8/11/3 34/12/3 30/13/3 12/14/3
f 31/15/4 27/16/4 29/17/4
f 31/15/4 29/17/4 33/18/4
f 11/7/4 21/19/4 23/20/4 12/14/4
f 2/4/5 14/21/5 15/22/5 1/5/5
f 10/10/4 19/23/4 21/19/4 11/7/4
f 7/24/4 13/25/4 17/26/4 9/27/4
f 9/27/4 17/26/4 19/23/4 10/10/4
f 3/1/6 18/28/6 14/21/6 2/4/6
f 12/14/4 23/20/4 16/29/4 8/11/4
f 4/3/7 20/30/7 18/28/7 3/1/7
f 5/2/2 22/31/2 20/30/2 4/3/2
f 6/6/8 24/32/8 22/31/8 5/2/8
f 1/5/3 15/22/3 24/32/3 6/6/3
f 12/14/8 30/13/8 26/8/8 11/7/8
f 7/24/5 32/33/5 34/12/5 8/11/5
f 10/10/7 36/9/7 28/34/7 9/27/7
f 27/16/4 35/35/4 25/36/4
f 9/27/6 28/34/6 32/33/6 7/24/6
f 14/21/9 13/25/9 16/29/9 15/22/9
f 18/28/10 17/26/10 13/25/10 14/21/10
f 20/30/11 19/23/11 17/26/11 18/28/11
f 22/31/12 21/19/12 19/23/12 20/30/12
f 24/32/13 23/20/13 21/19/13 22/31/13
f 15/22/14 16/29/14 23/20/14 24/32/14
f 8/11/4 16/29/4 13/25/4 7/24/4
f 32/33/15 31/15/15 33/18/15 34/12/15
f 28/34/16 27/16/16 31/15/16 32/33/16
f 36/9/11 35/35/11 27/16/11 28/34/11
f 26/8/17 25/36/17 35/35/17 36/9/17
f 30/13/18 29/17/18 25/36/18 26/8/18
f 34/12/14 33/18/14 29/17/14 30/13/14
f 27/16/4 25/36/4 29/17/4
