# Blender v2.80 (sub 75) OBJ File: 'Engine.blend'
# www.blender.org
mtllib rocket2a.mtl
o Cylinder
v -0.376556 0.386937 -0.713936
v -0.172086 0.386937 -0.713936
v -0.376556 0.057836 -0.625753
v -0.376556 0.057836 0.514287
v -0.376556 0.386937 0.602470
v -0.172086 0.386937 0.602470
v -0.376556 0.716039 0.514287
v -0.172086 0.716039 0.514287
v -0.376556 0.956958 0.273369
v -0.172086 0.956958 0.273369
v -0.376556 1.045140 -0.055733
v -0.172086 1.045140 -0.055733
v -0.376556 0.956958 -0.384834
v -0.172086 0.956958 -0.384834
v -0.376556 0.716039 -0.625753
v -0.172086 0.716039 -0.625753
v -0.172086 0.067775 -0.628416
v -0.357953 0.057836 -0.625753
v -0.376556 0.056842 -0.624759
v -0.172086 0.068682 0.517193
vt 0.500000 0.500000
vt 0.500000 1.000000
vt 0.416667 1.000000
vt 0.416667 0.500000
vt 0.333333 1.000000
vt 0.333333 0.500000
vt 0.250000 1.000000
vt 0.250000 0.500000
vt 0.166667 1.000000
vt 0.166667 0.500000
vt 0.366376 0.458817
vt 0.250000 0.490000
vt 0.130000 0.457846
vt 0.042154 0.370000
vt 0.010000 0.250000
vt 0.042154 0.130000
vt 0.130000 0.042154
vt 0.250000 0.010000
vt 0.366045 0.041094
vt 0.083333 1.000000
vt 0.083333 0.500000
vt 0.000000 1.000000
vt 0.000000 0.500000
vt 0.583333 0.500000
vt 0.580587 1.000000
vt 0.750000 0.490000
vt 0.870000 0.457846
vt 0.870363 0.457484
vt 0.870000 0.042154
vt 0.750000 0.010000
vt 0.630000 0.042154
vt 0.542154 0.130000
vt 0.510000 0.250000
vt 0.542154 0.370000
vt 0.630000 0.457846
vt 0.916667 0.500000
vt 0.916667 0.545489
vt 0.916323 0.500000
vt 1.000000 0.500000
vt 1.000000 1.000000
vt 0.919183 1.000000
vn 0.0000 0.2588 0.9659
vn 0.0000 0.7071 0.7071
vn 0.0000 0.9659 0.2588
vn 0.0000 0.9659 -0.2588
vn 1.0000 0.0000 -0.0000
vn 0.0000 0.7071 -0.7071
vn 0.0000 0.2588 -0.9659
vn -0.0000 -0.2588 0.9659
vn -1.0000 0.0000 -0.0000
vn 0.0000 -0.7071 -0.7071
vn 0.0000 -0.2588 -0.9659
usemtl None
s off
f 5/1/1 6/2/1 8/3/1 7/4/1
f 7/4/2 8/3/2 10/5/2 9/6/2
f 9/6/3 10/5/3 12/7/3 11/8/3
f 11/8/4 12/7/4 14/9/4 13/10/4
f 17/11/5 2/12/5 16/13/5 14/14/5 12/15/5 10/16/5 8/17/5 6/18/5 20/19/5
f 13/10/6 14/9/6 16/20/6 15/21/6
f 15/21/7 16/20/7 2/22/7 1/23/7
f 5/1/8 4/24/8 20/25/8 6/2/8
f 1/26/9 3/27/9 19/28/9 4/29/9 5/30/9 7/31/9 9/32/9 11/33/9 13/34/9 15/35/9
f 3/36/10 18/37/10 19/38/10
f 1/39/11 2/40/11 17/41/11 18/37/11 3/36/11
