# Blender v2.80 (sub 75) OBJ File: 'Armour.blend'
# www.blender.org
mtllib armour.mtl
o Cube
v -0.834939 0.067926 0.485914
v -0.625243 0.383193 0.485914
v -0.834939 0.067926 -0.485914
v -0.625243 0.383193 -0.485914
v -0.362112 0.067926 0.485914
v -0.362112 0.383193 0.485914
v -0.362112 0.067926 -0.485914
v -0.362112 0.383193 -0.485914
v 0.826771 0.056554 -0.486164
v 0.617075 0.371820 -0.486164
v 0.826771 0.056554 0.485663
v 0.617075 0.371820 0.485663
v 0.353944 0.056554 -0.486164
v 0.353944 0.371820 -0.486164
v 0.353944 0.056554 0.485663
v 0.353944 0.371820 0.485663
vt 0.375000 0.000000
vt 0.625000 0.000000
vt 0.625000 0.250000
vt 0.375000 0.250000
vt 0.625000 0.500000
vt 0.375000 0.500000
vt 0.625000 0.750000
vt 0.375000 0.750000
vt 0.625000 1.000000
vt 0.375000 1.000000
vt 0.125000 0.500000
vt 0.125000 0.750000
vt 0.875000 0.500000
vt 0.875000 0.750000
vt 0.375000 0.000000
vt 0.625000 0.000000
vt 0.625000 0.250000
vt 0.375000 0.250000
vt 0.625000 0.500000
vt 0.375000 0.500000
vt 0.625000 0.750000
vt 0.375000 0.750000
vt 0.625000 1.000000
vt 0.375000 1.000000
vt 0.125000 0.500000
vt 0.125000 0.750000
vt 0.875000 0.500000
vt 0.875000 0.750000
vn -0.8326 0.5538 0.0000
vn 0.0000 0.0000 -1.0000
vn 1.0000 0.0000 0.0000
vn 0.0000 0.0000 1.0000
vn 0.0000 -1.0000 0.0000
vn 0.0000 1.0000 0.0000
vn 0.8326 0.5538 -0.0000
vn -1.0000 0.0000 0.0000
usemtl None
s off
f 1/1/1 2/2/1 4/3/1 3/4/1
f 3/4/2 4/3/2 8/5/2 7/6/2
f 7/6/3 8/5/3 6/7/3 5/8/3
f 5/8/4 6/7/4 2/9/4 1/10/4
f 3/11/5 7/6/5 5/8/5 1/12/5
f 8/5/6 4/13/6 2/14/6 6/7/6
f 9/15/7 10/16/7 12/17/7 11/18/7
f 11/18/4 12/17/4 16/19/4 15/20/4
f 15/20/8 16/19/8 14/21/8 13/22/8
f 13/22/2 14/21/2 10/23/2 9/24/2
f 11/25/5 15/20/5 13/22/5 9/26/5
f 16/19/6 12/27/6 10/28/6 14/21/6
o Cube.001
v -0.359625 0.059392 0.712873
v -0.359625 0.283544 0.712873
v -0.614431 0.059392 0.565394
v -0.614431 0.283544 0.565394
v -0.310347 0.059392 0.627735
v -0.310347 0.283544 0.627735
v -0.565154 0.059392 0.480255
v -0.565154 0.283544 0.480255
vt 0.375000 0.000000
vt 0.625000 0.000000
vt 0.625000 0.250000
vt 0.375000 0.250000
vt 0.625000 0.500000
vt 0.375000 0.500000
vt 0.625000 0.750000
vt 0.375000 0.750000
vt 0.625000 1.000000
vt 0.375000 1.000000
vt 0.125000 0.500000
vt 0.125000 0.750000
vt 0.875000 0.500000
vt 0.875000 0.750000
vn -0.5009 0.0000 0.8655
vn -0.8655 0.0000 -0.5009
vn 0.5009 0.0000 -0.8655
vn 0.8655 0.0000 0.5009
vn 0.0000 -1.0000 0.0000
vn 0.0000 1.0000 -0.0000
usemtl None
s off
f 17/29/9 18/30/9 20/31/9 19/32/9
f 19/32/10 20/31/10 24/33/10 23/34/10
f 23/34/11 24/33/11 22/35/11 21/36/11
f 21/36/12 22/35/12 18/37/12 17/38/12
f 19/39/13 23/34/13 21/36/13 17/40/13
f 24/33/14 20/41/14 18/42/14 22/35/14
o Cube.002
v -0.048450 0.057764 0.888182
v -0.048450 0.281916 0.888182
v -0.303256 0.057764 0.740703
v -0.303256 0.281916 0.740703
v 0.000828 0.057764 0.803044
v 0.000828 0.281916 0.803044
v -0.253979 0.057764 0.655565
v -0.253979 0.281916 0.655565
vt 0.375000 0.000000
vt 0.625000 0.000000
vt 0.625000 0.250000
vt 0.375000 0.250000
vt 0.625000 0.500000
vt 0.375000 0.500000
vt 0.625000 0.750000
vt 0.375000 0.750000
vt 0.625000 1.000000
vt 0.375000 1.000000
vt 0.125000 0.500000
vt 0.125000 0.750000
vt 0.875000 0.500000
vt 0.875000 0.750000
vn -0.5009 0.0000 0.8655
vn -0.8655 0.0000 -0.5009
vn 0.5009 0.0000 -0.8655
vn 0.8655 0.0000 0.5009
vn 0.0000 -1.0000 0.0000
vn 0.0000 1.0000 0.0000
usemtl None
s off
f 25/43/15 26/44/15 28/45/15 27/46/15
f 27/46/16 28/45/16 32/47/16 31/48/16
f 31/48/17 32/47/17 30/49/17 29/50/17
f 29/50/18 30/49/18 26/51/18 25/52/18
f 27/53/19 31/48/19 29/50/19 25/54/19
f 32/47/20 28/55/20 26/56/20 30/49/20
o Cube.003
v 0.304706 0.050391 0.744444
v 0.304706 0.274544 0.744444
v 0.051007 0.050391 0.893821
v 0.051007 0.274544 0.893821
v 0.254795 0.050391 0.659676
v 0.254795 0.274544 0.659676
v 0.001096 0.050391 0.809053
v 0.001096 0.274544 0.809053
vt 0.375000 0.000000
vt 0.625000 0.000000
vt 0.625000 0.250000
vt 0.375000 0.250000
vt 0.625000 0.500000
vt 0.375000 0.500000
vt 0.625000 0.750000
vt 0.375000 0.750000
vt 0.625000 1.000000
vt 0.375000 1.000000
vt 0.125000 0.500000
vt 0.125000 0.750000
vt 0.875000 0.500000
vt 0.875000 0.750000
vn 0.5074 0.0000 0.8617
vn -0.8617 0.0000 0.5074
vn -0.5074 0.0000 -0.8617
vn 0.8617 0.0000 -0.5074
vn 0.0000 -1.0000 0.0000
vn 0.0000 1.0000 0.0000
usemtl None
s off
f 33/57/21 34/58/21 36/59/21 35/60/21
f 35/60/22 36/59/22 40/61/22 39/62/22
f 39/62/23 40/61/23 38/63/23 37/64/23
f 37/64/24 38/63/24 34/65/24 33/66/24
f 35/67/25 39/62/25 37/64/25 33/68/25
f 40/61/26 36/69/26 34/70/26 38/63/26
o Cube.004
v 0.598693 0.057692 0.575461
v 0.598693 0.281844 0.575461
v 0.344995 0.057692 0.724837
v 0.344995 0.281844 0.724837
v 0.548782 0.057692 0.490692
v 0.548782 0.281844 0.490692
v 0.295083 0.057692 0.640069
v 0.295083 0.281844 0.640069
vt 0.375000 0.000000
vt 0.625000 0.000000
vt 0.625000 0.250000
vt 0.375000 0.250000
vt 0.625000 0.500000
vt 0.375000 0.500000
vt 0.625000 0.750000
vt 0.375000 0.750000
vt 0.625000 1.000000
vt 0.375000 1.000000
vt 0.125000 0.500000
vt 0.125000 0.750000
vt 0.875000 0.500000
vt 0.875000 0.750000
vn 0.5074 0.0000 0.8617
vn -0.8617 0.0000 0.5074
vn -0.5074 0.0000 -0.8617
vn 0.8617 0.0000 -0.5074
vn 0.0000 -1.0000 0.0000
vn 0.0000 1.0000 0.0000
usemtl None
s off
f 41/71/27 42/72/27 44/73/27 43/74/27
f 43/74/28 44/73/28 48/75/28 47/76/28
f 47/76/29 48/75/29 46/77/29 45/78/29
f 45/78/30 46/77/30 42/79/30 41/80/30
f 43/81/31 47/76/31 45/78/31 41/82/31
f 48/75/32 44/83/32 42/84/32 46/77/32
o Cube.005
v 0.366508 0.057282 -0.715337
v 0.366508 0.281434 -0.715337
v 0.621314 0.057282 -0.567858
v 0.621314 0.281434 -0.567858
v 0.317231 0.057282 -0.630199
v 0.317231 0.281434 -0.630199
v 0.572037 0.057282 -0.482720
v 0.572037 0.281434 -0.482720
vt 0.375000 0.000000
vt 0.625000 0.000000
vt 0.625000 0.250000
vt 0.375000 0.250000
vt 0.625000 0.500000
vt 0.375000 0.500000
vt 0.625000 0.750000
vt 0.375000 0.750000
vt 0.625000 1.000000
vt 0.375000 1.000000
vt 0.125000 0.500000
vt 0.125000 0.750000
vt 0.875000 0.500000
vt 0.875000 0.750000
vn 0.5009 0.0000 -0.8655
vn 0.8655 0.0000 0.5009
vn -0.5009 0.0000 0.8655
vn -0.8655 0.0000 -0.5009
vn 0.0000 -1.0000 0.0000
vn 0.0000 1.0000 -0.0000
usemtl None
s off
f 49/85/33 50/86/33 52/87/33 51/88/33
f 51/88/34 52/87/34 56/89/34 55/90/34
f 55/90/35 56/89/35 54/91/35 53/92/35
f 53/92/36 54/91/36 50/93/36 49/94/36
f 51/95/37 55/90/37 53/92/37 49/96/37
f 56/89/38 52/97/38 50/98/38 54/91/38
o Cube.006
v 0.055333 0.055654 -0.890646
v 0.055333 0.279806 -0.890646
v 0.310139 0.055654 -0.743167
v 0.310139 0.279806 -0.743167
v 0.006055 0.055654 -0.805508
v 0.006055 0.279806 -0.805508
v 0.260862 0.055654 -0.658029
v 0.260862 0.279806 -0.658029
vt 0.375000 0.000000
vt 0.625000 0.000000
vt 0.625000 0.250000
vt 0.375000 0.250000
vt 0.625000 0.500000
vt 0.375000 0.500000
vt 0.625000 0.750000
vt 0.375000 0.750000
vt 0.625000 1.000000
vt 0.375000 1.000000
vt 0.125000 0.500000
vt 0.125000 0.750000
vt 0.875000 0.500000
vt 0.875000 0.750000
vn 0.5009 0.0000 -0.8655
vn 0.8655 0.0000 0.5009
vn -0.5009 0.0000 0.8655
vn -0.8655 0.0000 -0.5009
vn 0.0000 -1.0000 -0.0000
vn 0.0000 1.0000 0.0000
usemtl None
s off
f 57/99/39 58/100/39 60/101/39 59/102/39
f 59/102/40 60/101/40 64/103/40 63/104/40
f 63/104/41 64/103/41 62/105/41 61/106/41
f 61/106/42 62/105/42 58/107/42 57/108/42
f 59/109/43 63/104/43 61/106/43 57/110/43
f 64/103/44 60/111/44 58/112/44 62/105/44
o Cube.007
v -0.297823 0.048281 -0.746909
v -0.297823 0.272433 -0.746909
v -0.044124 0.048281 -0.896285
v -0.044124 0.272433 -0.896285
v -0.247912 0.048281 -0.662140
v -0.247912 0.272433 -0.662140
v 0.005787 0.048281 -0.811517
v 0.005787 0.272433 -0.811517
vt 0.375000 0.000000
vt 0.625000 0.000000
vt 0.625000 0.250000
vt 0.375000 0.250000
vt 0.625000 0.500000
vt 0.375000 0.500000
vt 0.625000 0.750000
vt 0.375000 0.750000
vt 0.625000 1.000000
vt 0.375000 1.000000
vt 0.125000 0.500000
vt 0.125000 0.750000
vt 0.875000 0.500000
vt 0.875000 0.750000
vn -0.5074 0.0000 -0.8617
vn 0.8617 0.0000 -0.5074
vn 0.5074 0.0000 0.8617
vn -0.8617 0.0000 0.5074
vn 0.0000 -1.0000 0.0000
vn 0.0000 1.0000 -0.0000
usemtl None
s off
f 65/113/45 66/114/45 68/115/45 67/116/45
f 67/116/46 68/115/46 72/117/46 71/118/46
f 71/118/47 72/117/47 70/119/47 69/120/47
f 69/120/48 70/119/48 66/121/48 65/122/48
f 67/123/49 71/118/49 69/120/49 65/124/49
f 72/117/50 68/125/50 66/126/50 70/119/50
o Cube.008
v -0.591810 0.055582 -0.577925
v -0.591810 0.279734 -0.577925
v -0.338112 0.055582 -0.727301
v -0.338112 0.279734 -0.727301
v -0.541899 0.055582 -0.493156
v -0.541899 0.279734 -0.493156
v -0.288200 0.055582 -0.642533
v -0.288200 0.279734 -0.642533
vt 0.375000 0.000000
vt 0.625000 0.000000
vt 0.625000 0.250000
vt 0.375000 0.250000
vt 0.625000 0.500000
vt 0.375000 0.500000
vt 0.625000 0.750000
vt 0.375000 0.750000
vt 0.625000 1.000000
vt 0.375000 1.000000
vt 0.125000 0.500000
vt 0.125000 0.750000
vt 0.875000 0.500000
vt 0.875000 0.750000
vn -0.5074 0.0000 -0.8617
vn 0.8617 0.0000 -0.5074
vn 0.5074 0.0000 0.8617
vn -0.8617 0.0000 0.5074
vn 0.0000 -1.0000 0.0000
vn 0.0000 1.0000 0.0000
usemtl None
s off
f 73/127/51 74/128/51 76/129/51 75/130/51
f 75/130/52 76/129/52 80/131/52 79/132/52
f 79/132/53 80/131/53 78/133/53 77/134/53
f 77/134/54 78/133/54 74/135/54 73/136/54
f 75/137/55 79/132/55 77/134/55 73/138/55
f 80/131/56 76/139/56 74/140/56 78/133/56
