# Blender v2.80 (sub 75) OBJ File: 'arrow.blend'
# www.blender.org
mtllib arrow.mtl
o Cube
v 0.428963 1.702106 0.125284
v 0.924634 0.223313 -2.550450
v 0.924634 0.223313 2.801018
v -0.579695 1.702106 0.125284
v -1.075366 0.223313 -2.550450
v -1.075366 0.223313 2.801018
v -0.584207 0.223313 -1.236238
v -0.584207 0.223313 1.486806
v 0.433474 0.223313 -1.236238
v 0.433474 0.223313 1.486806
v -0.584207 -2.586976 -1.236238
v -0.584207 -2.586976 1.486806
v 0.433474 -2.586976 -1.236238
v 0.433474 -2.586976 1.486806
vt 0.375000 0.250000
vt 0.625000 0.250000
vt 0.625000 0.500000
vt 0.375000 0.500000
vt 0.625000 0.750000
vt 0.375000 0.750000
vt 0.625000 0.500000
vt 0.625000 0.750000
vt 0.625000 0.750000
vt 0.625000 0.500000
vt 0.125000 0.500000
vt 0.375000 0.750000
vt 0.125000 0.750000
vt 0.875000 0.500000
vt 0.875000 0.750000
vt 0.125000 0.500000
vt 0.125000 0.750000
vt 0.125000 0.750000
vt 0.125000 0.500000
vt 0.375000 0.500000
vt 0.375000 0.250000
vt 0.375000 0.750000
vt 0.375000 0.750000
vt 0.625000 0.750000
vt 0.625000 1.000000
vt 0.375000 1.000000
vt 0.625000 0.500000
vt 0.375000 0.500000
vt 0.375000 0.250000
vn 0.0000 0.8752 0.4837
vn -0.9482 0.3178 0.0000
vn 0.0000 -1.0000 0.0000
vn 0.9482 0.3178 0.0000
vn 0.0000 0.8752 -0.4837
vn 1.0000 0.0000 0.0000
vn 0.0000 0.0000 -1.0000
vn 0.0000 0.0000 1.0000
vn -1.0000 0.0000 0.0000
usemtl Material
s off
f 3/1/1 1/2/1 4/3/1 6/4/1
f 6/4/2 4/5/2 5/6/2
f 5/7/3 2/8/3 9/9/3 7/10/3
f 2/11/4 1/12/4 3/13/4
f 5/7/5 4/14/5 1/15/5 2/8/5
f 9/16/6 10/17/6 14/18/6 13/19/6
f 3/1/3 6/4/3 8/20/3 10/21/3
f 6/4/3 5/6/3 7/22/3 8/20/3
f 2/11/3 3/13/3 10/17/3 9/16/3
f 11/23/3 13/24/3 14/25/3 12/26/3
f 7/10/7 9/9/7 13/24/7 11/27/7
f 10/21/8 8/20/8 12/28/8 14/29/8
f 8/20/9 7/22/9 11/23/9 12/28/9
