# Blender v2.80 (sub 75) OBJ File: 'untitled.blend'
# www.blender.org
mtllib connector2.mtl
o Connector.Left.Tube_Circle.009
v 0.866025 0.100000 0.268834
v 0.866025 0.096194 0.287968
v 0.866025 0.085355 0.304189
v 0.866025 0.069134 0.315028
v 0.866025 0.050000 0.318834
v 0.866025 0.030866 0.315028
v 0.866025 0.014645 0.304189
v 0.866025 0.003806 0.287968
v 0.866025 0.000000 0.268834
v 0.866025 0.003806 0.249699
v 0.866025 0.014645 0.233478
v 0.866025 0.030866 0.222640
v 0.866025 0.050000 0.218834
v 0.866025 0.069134 0.222640
v 0.866025 0.085355 0.233478
v 0.866025 0.096194 0.249699
v 0.448668 0.100000 0.268834
v 0.448668 0.096194 0.287968
v 0.448668 0.085355 0.304189
v 0.448668 0.069134 0.315028
v 0.448668 0.050000 0.318834
v 0.448668 0.030866 0.315028
v 0.448668 0.014645 0.304189
v 0.448668 0.003806 0.287968
v 0.448668 0.000000 0.268834
v 0.448668 0.003806 0.249699
v 0.448668 0.014645 0.233478
v 0.448668 0.030866 0.222640
v 0.448668 0.050000 0.218834
v 0.448668 0.069134 0.222640
v 0.448668 0.085355 0.233478
v 0.448668 0.096194 0.249699
vt 0.000000 0.000000
vt 0.000000 0.000000
vt 0.000000 0.000000
vt 0.000000 0.000000
vt 0.000000 0.000000
vt 0.000000 0.000000
vt 0.000000 0.000000
vt 0.000000 0.000000
vt 0.000000 0.000000
vt 0.000000 0.000000
vt 0.000000 0.000000
vt 0.000000 0.000000
vt 0.000000 0.000000
vt 0.000000 0.000000
vt 0.000000 0.000000
vt 0.000000 0.000000
vt 0.000000 0.000000
vt 0.000000 0.000000
vt 0.000000 0.000000
vt 0.000000 0.000000
vt 0.000000 0.000000
vt 0.000000 0.000000
vt 0.000000 0.000000
vt 0.000000 0.000000
vt 0.000000 0.000000
vt 0.000000 0.000000
vt 0.000000 0.000000
vt 0.000000 0.000000
vt 0.000000 0.000000
vt 0.000000 0.000000
vt 0.000000 0.000000
vt 0.000000 0.000000
vn 0.0000 -0.1951 -0.9808
vn -0.0000 -0.1951 0.9808
vn 0.0000 0.1951 -0.9808
vn 0.0000 -0.5556 0.8315
vn 0.0000 0.5556 -0.8315
vn 0.0000 -0.8315 0.5556
vn 0.0000 0.8315 -0.5556
vn -0.0000 -0.9808 0.1951
vn 0.0000 0.9808 0.1951
vn 0.0000 0.9808 -0.1951
vn -0.0000 -0.9808 -0.1951
vn 0.0000 0.8315 0.5556
vn -0.0000 -0.8315 -0.5556
vn 0.0000 0.5556 0.8315
vn 0.0000 -0.5556 -0.8315
vn 0.0000 0.1951 0.9808
vn -1.0000 -0.0000 0.0000
vn 1.0000 0.0000 0.0000
usemtl ConnectorMetal1
s off
f 13/1/1 12/2/1 28/3/1 29/4/1
f 6/5/2 5/6/2 21/7/2 22/8/2
f 14/9/3 13/1/3 29/4/3 30/10/3
f 7/11/4 6/5/4 22/8/4 23/12/4
f 15/13/5 14/9/5 30/10/5 31/14/5
f 8/15/6 7/11/6 23/12/6 24/16/6
f 16/17/7 15/13/7 31/14/7 32/18/7
f 9/19/8 8/15/8 24/16/8 25/20/8
f 2/21/9 1/22/9 17/23/9 18/24/9
f 1/22/10 16/17/10 32/18/10 17/23/10
f 10/25/11 9/19/11 25/20/11 26/26/11
f 3/27/12 2/21/12 18/24/12 19/28/12
f 11/29/13 10/25/13 26/26/13 27/30/13
f 4/31/14 3/27/14 19/28/14 20/32/14
f 12/2/15 11/29/15 27/30/15 28/3/15
f 5/6/16 4/31/16 20/32/16 21/7/16
f 18/24/17 17/23/17 32/18/17 31/14/17 30/10/17 29/4/17 28/3/17 27/30/17 26/26/17 25/20/17 24/16/17 23/12/17 22/8/17 21/7/17 20/32/17 19/28/17
f 2/21/18 3/27/18 4/31/18 5/6/18 6/5/18 7/11/18 8/15/18 9/19/18 10/25/18 11/29/18 12/2/18 13/1/18 14/9/18 15/13/18 16/17/18 1/22/18
o Connector.Left.Supports_Circle.010
v 0.808469 0.053678 0.268834
v 0.808469 0.026032 0.323400
v 0.808469 0.000000 0.346002
v 0.788807 0.000000 0.346002
v 0.788807 0.026032 0.323400
v 0.788807 0.053678 0.268834
v 0.808469 0.000000 0.191665
v 0.808469 0.026032 0.214267
v 0.788807 0.000000 0.191665
v 0.788807 0.026032 0.214267
v 0.528789 0.053678 0.268834
v 0.528789 0.026032 0.323400
v 0.528789 0.000000 0.346002
v 0.509126 0.000000 0.346002
v 0.509126 0.026032 0.323400
v 0.509126 0.053678 0.268834
v 0.528789 0.000000 0.191665
v 0.528789 0.026032 0.214267
v 0.509126 0.000000 0.191665
v 0.509126 0.026032 0.214267
vt 0.000000 0.000000
vt 0.000000 0.000000
vt 0.000000 0.000000
vt 0.000000 0.000000
vt 0.000000 0.000000
vt 0.000000 0.000000
vt 0.000000 0.000000
vt 0.000000 0.000000
vt 0.000000 0.000000
vt 0.000000 0.000000
vt 0.000000 0.000000
vt 0.000000 0.000000
vt 0.000000 0.000000
vt 0.000000 0.000000
vt 0.000000 0.000000
vt 0.000000 0.000000
vt 0.000000 0.000000
vt 0.000000 0.000000
vt 0.000000 0.000000
vt 0.000000 0.000000
vn -1.0000 0.0000 0.0000
vn 1.0000 -0.0000 0.0000
vn 0.0000 -0.8920 -0.4520
vn 0.0000 -0.8920 0.4520
vn 0.0000 1.0000 0.0000
vn 0.0000 -0.6556 -0.7551
vn 0.0000 -0.6556 0.7551
usemtl ConnectorMetal1
s off
f 34/33/19 33/34/19 40/35/19 39/36/19 35/37/19
f 37/38/20 36/39/20 41/40/20 42/41/20 38/42/20
f 33/34/21 34/33/21 37/38/21 38/42/21
f 40/35/22 33/34/22 38/42/22 42/41/22
f 35/37/23 39/36/23 41/40/23 36/39/23
f 34/33/24 35/37/24 36/39/24 37/38/24
f 39/36/25 40/35/25 42/41/25 41/40/25
f 44/43/19 43/44/19 50/45/19 49/46/19 45/47/19
f 47/48/20 46/49/20 51/50/20 52/51/20 48/52/20
f 43/44/21 44/43/21 47/48/21 48/52/21
f 50/45/22 43/44/22 48/52/22 52/51/22
f 45/47/23 49/46/23 51/50/23 46/49/23
f 44/43/24 45/47/24 46/49/24 47/48/24
f 49/46/25 50/45/25 52/51/25 51/50/25
o Connector.Right.Tube_Circle.011
v 0.866025 0.100000 -0.268834
v 0.866025 0.096194 -0.249699
v 0.866025 0.085355 -0.233478
v 0.866025 0.069134 -0.222640
v 0.866025 0.050000 -0.218834
v 0.866025 0.030866 -0.222640
v 0.866025 0.014645 -0.233478
v 0.866025 0.003806 -0.249699
v 0.866025 0.000000 -0.268834
v 0.866025 0.003806 -0.287968
v 0.866025 0.014645 -0.304189
v 0.866025 0.030866 -0.315028
v 0.866025 0.050000 -0.318834
v 0.866025 0.069134 -0.315028
v 0.866025 0.085355 -0.304189
v 0.866025 0.096194 -0.287968
v 0.448668 0.100000 -0.268834
v 0.448668 0.096194 -0.249699
v 0.448668 0.085355 -0.233478
v 0.448668 0.069134 -0.222640
v 0.448668 0.050000 -0.218834
v 0.448668 0.030866 -0.222640
v 0.448668 0.014645 -0.233478
v 0.448668 0.003806 -0.249699
v 0.448668 0.000000 -0.268834
v 0.448668 0.003806 -0.287968
v 0.448668 0.014645 -0.304189
v 0.448668 0.030866 -0.315028
v 0.448668 0.050000 -0.318834
v 0.448668 0.069134 -0.315028
v 0.448668 0.085355 -0.304189
v 0.448668 0.096194 -0.287968
vt 0.000000 0.000000
vt 0.000000 0.000000
vt 0.000000 0.000000
vt 0.000000 0.000000
vt 0.000000 0.000000
vt 0.000000 0.000000
vt 0.000000 0.000000
vt 0.000000 0.000000
vt 0.000000 0.000000
vt 0.000000 0.000000
vt 0.000000 0.000000
vt 0.000000 0.000000
vt 0.000000 0.000000
vt 0.000000 0.000000
vt 0.000000 0.000000
vt 0.000000 0.000000
vt 0.000000 0.000000
vt 0.000000 0.000000
vt 0.000000 0.000000
vt 0.000000 0.000000
vt 0.000000 0.000000
vt 0.000000 0.000000
vt 0.000000 0.000000
vt 0.000000 0.000000
vt 0.000000 0.000000
vt 0.000000 0.000000
vt 0.000000 0.000000
vt 0.000000 0.000000
vt 0.000000 0.000000
vt 0.000000 0.000000
vt 0.000000 0.000000
vt 0.000000 0.000000
vn -0.0000 -0.1951 -0.9808
vn 0.0000 -0.1951 0.9808
vn 0.0000 0.1951 -0.9808
vn 0.0000 -0.5556 0.8315
vn 0.0000 0.5556 -0.8315
vn 0.0000 -0.8315 0.5556
vn 0.0000 0.8315 -0.5556
vn -0.0000 -0.9808 0.1951
vn 0.0000 0.9808 0.1951
vn 0.0000 0.9808 -0.1951
vn -0.0000 -0.9808 -0.1951
vn 0.0000 0.8315 0.5556
vn -0.0000 -0.8315 -0.5556
vn 0.0000 0.5556 0.8315
vn -0.0000 -0.5556 -0.8315
vn 0.0000 0.1951 0.9808
vn -1.0000 -0.0000 0.0000
vn 1.0000 -0.0000 0.0000
usemtl ConnectorMetal1
s off
f 65/53/26 64/54/26 80/55/26 81/56/26
f 58/57/27 57/58/27 73/59/27 74/60/27
f 66/61/28 65/53/28 81/56/28 82/62/28
f 59/63/29 58/57/29 74/60/29 75/64/29
f 67/65/30 66/61/30 82/62/30 83/66/30
f 60/67/31 59/63/31 75/64/31 76/68/31
f 68/69/32 67/65/32 83/66/32 84/70/32
f 61/71/33 60/67/33 76/68/33 77/72/33
f 54/73/34 53/74/34 69/75/34 70/76/34
f 53/74/35 68/69/35 84/70/35 69/75/35
f 62/77/36 61/71/36 77/72/36 78/78/36
f 55/79/37 54/73/37 70/76/37 71/80/37
f 63/81/38 62/77/38 78/78/38 79/82/38
f 56/83/39 55/79/39 71/80/39 72/84/39
f 64/54/40 63/81/40 79/82/40 80/55/40
f 57/58/41 56/83/41 72/84/41 73/59/41
f 70/76/42 69/75/42 84/70/42 83/66/42 82/62/42 81/56/42 80/55/42 79/82/42 78/78/42 77/72/42 76/68/42 75/64/42 74/60/42 73/59/42 72/84/42 71/80/42
f 54/73/43 55/79/43 56/83/43 57/58/43 58/57/43 59/63/43 60/67/43 61/71/43 62/77/43 63/81/43 64/54/43 65/53/43 66/61/43 67/65/43 68/69/43 53/74/43
o Connector.Right.Supports_Circle.012
v 0.808469 0.053678 -0.268834
v 0.808469 0.026032 -0.214267
v 0.808469 0.000000 -0.191665
v 0.788807 0.000000 -0.191665
v 0.788807 0.026032 -0.214267
v 0.788807 0.053678 -0.268834
v 0.808469 0.000000 -0.346002
v 0.808469 0.026032 -0.323400
v 0.788807 0.000000 -0.346002
v 0.788807 0.026032 -0.323400
v 0.528789 0.053678 -0.268834
v 0.528789 0.026032 -0.214267
v 0.528789 0.000000 -0.191665
v 0.509126 0.000000 -0.191665
v 0.509126 0.026032 -0.214267
v 0.509126 0.053678 -0.268834
v 0.528789 0.000000 -0.346002
v 0.528789 0.026032 -0.323400
v 0.509126 0.000000 -0.346002
v 0.509126 0.026032 -0.323400
vt 0.000000 0.000000
vt 0.000000 0.000000
vt 0.000000 0.000000
vt 0.000000 0.000000
vt 0.000000 0.000000
vt 0.000000 0.000000
vt 0.000000 0.000000
vt 0.000000 0.000000
vt 0.000000 0.000000
vt 0.000000 0.000000
vt 0.000000 0.000000
vt 0.000000 0.000000
vt 0.000000 0.000000
vt 0.000000 0.000000
vt 0.000000 0.000000
vt 0.000000 0.000000
vt 0.000000 0.000000
vt 0.000000 0.000000
vt 0.000000 0.000000
vt 0.000000 0.000000
vn -1.0000 0.0000 0.0000
vn 1.0000 0.0000 0.0000
vn 0.0000 -0.8920 -0.4520
vn 0.0000 -0.8920 0.4520
vn 0.0000 1.0000 0.0000
vn 0.0000 -0.6556 -0.7551
vn 0.0000 -0.6556 0.7551
usemtl ConnectorMetal1
s off
f 86/85/44 85/86/44 92/87/44 91/88/44 87/89/44
f 89/90/45 88/91/45 93/92/45 94/93/45 90/94/45
f 85/86/46 86/85/46 89/90/46 90/94/46
f 92/87/47 85/86/47 90/94/47 94/93/47
f 87/89/48 91/88/48 93/92/48 88/91/48
f 86/85/49 87/89/49 88/91/49 89/90/49
f 91/88/50 92/87/50 94/93/50 93/92/50
f 96/95/44 95/96/44 102/97/44 101/98/44 97/99/44
f 99/100/45 98/101/45 103/102/45 104/103/45 100/104/45
f 95/96/46 96/95/46 99/100/46 100/104/46
f 102/97/47 95/96/47 100/104/47 104/103/47
f 97/99/48 101/98/48 103/102/48 98/101/48
f 96/95/49 97/99/49 98/101/49 99/100/49
f 101/98/50 102/97/50 104/103/50 103/102/50
