# Blender v2.80 (sub 75) OBJ File: 'untitled.blend'
# www.blender.org
mtllib floor.mtl
o Circle.009_Circle.001
v 0.000000 0.000000 -1.000000
v -0.866025 0.000000 -0.500000
v -0.866025 0.000000 0.500000
v 0.000000 0.000000 1.000000
v 0.866025 0.000000 0.500000
v 0.866025 0.000000 -0.500000
v 0.000000 0.126216 -1.000000
v -0.866025 0.126216 -0.500000
v -0.866025 0.126216 0.500000
v 0.000000 0.126216 1.000000
v 0.866025 0.126216 0.500000
v 0.866025 0.126216 -0.500000
vt 0.000000 0.000000
vt 0.000000 0.000000
vt 0.000000 0.000000
vt 0.000000 0.000000
vt 0.000000 0.000000
vt 0.000000 0.000000
vt 0.000000 0.000000
vt 0.000000 0.000000
vt 0.000000 0.000000
vt 0.000000 0.000000
vt 0.000000 0.000000
vt 0.000000 0.000000
vt 1.000000 0.750000
vt 0.500000 1.000000
vt 1.000000 0.250000
vt 0.000000 0.750000
vt 0.500000 0.000000
vt 0.000000 0.250000
vn 1.0000 0.0000 0.0000
vn -0.5000 0.0000 0.8660
vn -0.5000 0.0000 -0.8660
vn 0.5000 0.0000 -0.8660
vn 0.5000 0.0000 0.8660
vn -1.0000 0.0000 0.0000
vn 0.0000 1.0000 0.0000
usemtl Material
s off
f 5/1/1 6/2/1 12/3/1 11/4/1
f 3/5/2 4/6/2 10/7/2 9/8/2
f 1/9/3 2/10/3 8/11/3 7/12/3
f 6/2/4 1/9/4 7/12/4 12/3/4
f 4/6/5 5/1/5 11/4/5 10/7/5
f 2/10/6 3/5/6 9/8/6 8/11/6
usemtl Floor
f 7/13/7 8/14/7 12/15/7
f 8/14/7 9/16/7 12/15/7
f 12/15/7 9/16/7 11/17/7
f 10/18/7 11/17/7 9/16/7
