# Blender v2.80 (sub 75) OBJ File: 'fuel.blend'
# www.blender.org
mtllib fuel.mtl
o Cube
v 1.000000 1.000000 -1.000000
v 1.000000 -1.000000 -1.000000
v 1.000000 1.000000 1.000000
v 1.000000 -1.000000 1.000000
v -1.000000 1.000000 -1.000000
v -1.000000 -1.000000 -1.000000
v -1.000000 1.000000 1.000000
v -1.000000 -1.000000 1.000000
v -1.224745 -1.224745 0.000000
v 0.000000 -1.224745 -1.224745
v 1.224745 0.000000 -1.224745
v -1.224745 0.000000 1.224745
v 1.224745 0.000000 1.224745
v -1.224745 0.000000 -1.224745
v 0.000000 1.224745 1.224745
v 1.224745 1.224745 0.000000
v 0.000000 -1.224745 1.224745
v -1.224745 1.224745 0.000000
v 0.000000 1.224745 -1.224745
v 1.224745 -1.224745 0.000000
v 0.000000 0.000000 -1.732051
v 1.732051 0.000000 0.000000
v 0.000000 -1.732051 0.000000
v -1.732051 0.000000 0.000000
v 0.000000 0.000000 1.732051
v 0.000000 1.732051 0.000000
vt 0.143254 0.147306
vt 0.324486 0.197217
vt 0.272919 0.351480
vt 0.125247 0.354412
vt 0.155766 0.500000
vt 0.333333 0.446610
vt 0.822433 0.000000
vt 1.000000 0.053390
vt 0.939586 0.148520
vt 0.791914 0.145588
vt 0.476587 0.352695
vt 0.657819 0.302783
vt 0.666667 0.437897
vt 0.532572 0.500000
vt 0.809921 0.647306
vt 0.791914 0.854412
vt 0.674644 0.818802
vt 0.666667 0.657195
vt 0.809921 0.352694
vt 0.991152 0.302783
vt 1.000000 0.437897
vt 0.865906 0.500000
vt 0.458580 0.145588
vt 0.489100 0.000000
vt 0.666667 0.053390
vt 0.606252 0.148520
vt 0.674644 0.181198
vt 0.666667 0.342805
vt 0.333333 0.946610
vt 0.155766 1.000000
vt 0.125247 0.854412
vt 0.272919 0.851480
vt 1.000000 0.562103
vt 0.991152 0.697217
vt 0.865906 0.500000
vt 0.939586 0.851480
vt 0.458580 0.645588
vt 0.489100 0.500000
vt 0.666667 0.553390
vt 0.606252 0.648520
vt 0.341311 0.181198
vt 0.333333 0.342805
vt 0.476587 0.852694
vt 0.333333 0.842805
vt 0.341311 0.681198
vt 0.657819 0.802783
vt 0.666667 0.937897
vt 0.532572 1.000000
vt 0.324486 0.697217
vt 0.143254 0.647306
vt 0.199239 0.500000
vt 0.333333 0.562103
vt 0.007977 0.818802
vt 0.000000 0.657195
vt 0.000000 0.157195
vt 0.007977 0.318802
vt 1.000000 0.946610
vt 0.822433 1.000000
vt 0.199239 0.000000
vt 0.333333 0.062103
vn -0.3251 0.8881 0.3251
vn -0.3251 0.3251 0.8881
vn -0.8881 0.3251 -0.3251
vn 0.3251 -0.8881 0.3251
vn 0.8881 0.3251 0.3251
vn 0.3251 0.3251 -0.8881
vn 0.3251 -0.3251 -0.8881
vn -0.3251 -0.3251 -0.8881
vn -0.3251 0.3251 -0.8881
vn 0.8881 -0.3251 0.3251
vn 0.8881 -0.3251 -0.3251
vn 0.8881 0.3251 -0.3251
vn -0.3251 -0.8881 0.3251
vn -0.3251 -0.8881 -0.3251
vn 0.3251 -0.8881 -0.3251
vn -0.8881 -0.3251 -0.3251
vn -0.8881 -0.3251 0.3251
vn -0.8881 0.3251 0.3251
vn -0.3251 -0.3251 0.8881
vn 0.3251 -0.3251 0.8881
vn 0.3251 0.3251 0.8881
vn 0.3251 0.8881 0.3251
vn 0.3251 0.8881 -0.3251
vn -0.3251 0.8881 -0.3251
usemtl Material
s off
f 26/1/1 18/2/1 7/3/1 15/4/1
f 25/5/2 15/4/2 7/3/2 12/6/2
f 24/7/3 18/8/3 5/9/3 14/10/3
f 23/11/4 20/12/4 4/13/4 17/14/4
f 22/15/5 16/16/5 3/17/5 13/18/5
f 21/19/6 19/20/6 1/21/6 11/22/6
f 10/23/7 21/24/7 11/25/7 2/26/7
f 6/27/8 14/10/8 21/19/8 10/28/8
f 14/10/9 5/9/9 19/20/9 21/19/9
f 20/29/10 22/30/10 13/31/10 4/32/10
f 2/33/11 11/34/11 22/15/11 20/35/11
f 11/34/12 1/36/12 16/16/12 22/15/12
f 9/37/13 23/38/13 17/39/13 8/40/13
f 6/41/14 10/23/14 23/11/14 9/42/14
f 10/23/15 2/26/15 20/12/15 23/11/15
f 9/37/16 24/43/16 14/44/16 6/45/16
f 8/40/17 12/46/17 24/43/17 9/37/17
f 12/46/18 7/47/18 18/48/18 24/43/18
f 17/49/19 25/50/19 12/51/19 8/52/19
f 4/32/20 13/31/20 25/50/20 17/49/20
f 13/31/21 3/53/21 15/54/21 25/50/21
f 16/55/22 26/1/22 15/4/22 3/56/22
f 1/36/23 19/57/23 26/58/23 16/16/23
f 19/59/24 5/60/24 18/2/24 26/1/24
