# Blender v2.80 (sub 75) OBJ File: 'RocketLauncher.blend'
# www.blender.org
mtllib turret2a.mtl
o Circle.002_Circle.004
v -0.228975 0.034568 0.413236
v -0.228975 0.492518 0.413236
v -0.228975 0.034568 0.253485
v -0.228975 0.492518 0.253485
v 0.228975 0.034568 0.413236
v 0.228975 0.492518 0.413236
v 0.228975 0.034568 0.253485
v 0.228975 0.492518 0.253485
v -0.117525 0.638849 0.413236
v -0.117525 0.638849 0.253485
v 0.117525 0.638849 0.253485
v 0.117525 0.638849 0.413236
v -0.235589 0.021956 -0.221674
v -0.235589 0.479906 -0.221674
v -0.235589 0.021956 -0.381425
v -0.235589 0.479906 -0.381425
v 0.222361 0.021956 -0.221674
v 0.222361 0.479906 -0.221674
v 0.222361 0.021956 -0.381425
v 0.222361 0.479906 -0.381425
v -0.124139 0.626237 -0.221674
v -0.124139 0.626237 -0.381425
v 0.110910 0.626237 -0.381425
v 0.110910 0.626237 -0.221674
vt 0.375000 0.000000
vt 0.625000 0.000000
vt 0.625000 0.250000
vt 0.375000 0.250000
vt 0.625000 0.500000
vt 0.375000 0.500000
vt 0.625000 0.750000
vt 0.375000 0.750000
vt 0.625000 1.000000
vt 0.375000 1.000000
vt 0.125000 0.500000
vt 0.125000 0.750000
vt 0.625000 0.500000
vt 0.625000 0.750000
vt 0.875000 0.500000
vt 0.875000 0.750000
vt 0.625000 0.000000
vt 0.625000 0.250000
vt 0.625000 1.000000
vt 0.375000 0.000000
vt 0.625000 0.000000
vt 0.625000 0.250000
vt 0.375000 0.250000
vt 0.625000 0.500000
vt 0.375000 0.500000
vt 0.625000 0.750000
vt 0.375000 0.750000
vt 0.625000 1.000000
vt 0.375000 1.000000
vt 0.125000 0.500000
vt 0.125000 0.750000
vt 0.625000 0.500000
vt 0.625000 0.750000
vt 0.875000 0.500000
vt 0.875000 0.750000
vt 0.625000 0.000000
vt 0.625000 0.250000
vt 0.625000 1.000000
vn -1.0000 0.0000 0.0000
vn 0.0000 0.0000 -1.0000
vn 1.0000 0.0000 0.0000
vn 0.0000 0.0000 1.0000
vn 0.0000 -1.0000 0.0000
vn 0.7955 0.6059 0.0000
vn 0.0000 1.0000 0.0000
vn -0.7955 0.6059 0.0000
usemtl A
s off
f 1/1/1 2/2/1 4/3/1 3/4/1
f 3/4/2 4/3/2 8/5/2 7/6/2
f 7/6/3 8/5/3 6/7/3 5/8/3
f 5/8/4 6/7/4 2/9/4 1/10/4
f 3/11/5 7/6/5 5/8/5 1/12/5
f 6/7/6 8/5/6 11/13/6 12/14/6
f 11/13/7 10/15/7 9/16/7 12/14/7
f 4/3/8 2/2/8 9/17/8 10/18/8
f 2/9/4 6/7/4 12/14/4 9/19/4
f 8/5/2 4/3/2 10/18/2 11/13/2
f 13/20/1 14/21/1 16/22/1 15/23/1
f 15/23/2 16/22/2 20/24/2 19/25/2
f 19/25/3 20/24/3 18/26/3 17/27/3
f 17/27/4 18/26/4 14/28/4 13/29/4
f 15/30/5 19/25/5 17/27/5 13/31/5
f 18/26/6 20/24/6 23/32/6 24/33/6
f 23/32/7 22/34/7 21/35/7 24/33/7
f 16/22/8 14/21/8 21/36/8 22/37/8
f 14/28/4 18/26/4 24/33/4 21/38/4
f 20/24/2 16/22/2 22/37/2 23/32/2
