# Blender v2.80 (sub 75) OBJ File: 'RocketLauncher.blend'
# www.blender.org
mtllib turret2c.mtl
o Cone
v -0.393969 0.618973 -0.222544
v -0.388770 0.638914 -0.217022
v -0.384964 0.653513 -0.201935
v -0.383571 0.658856 -0.181327
v -0.384964 0.653513 -0.160718
v -0.388770 0.638914 -0.145632
v -0.473736 0.639768 -0.181327
v -0.393969 0.618973 -0.140110
v -0.399168 0.599031 -0.145632
v -0.402974 0.584432 -0.160718
v -0.404367 0.579089 -0.181327
v -0.402974 0.584432 -0.201935
v -0.399168 0.599031 -0.217022
vt 0.250000 0.490000
vt 0.250000 0.250000
vt 0.370000 0.457846
vt 0.457846 0.370000
vt 0.490000 0.250000
vt 0.457846 0.130000
vt 0.370000 0.042154
vt 0.250000 0.010000
vt 0.130000 0.042154
vt 0.042154 0.130000
vt 0.010000 0.250000
vt 0.042154 0.370000
vt 0.130000 0.457846
vt 0.750000 0.490000
vt 0.870000 0.457846
vt 0.957846 0.370000
vt 0.990000 0.250000
vt 0.957846 0.130000
vt 0.870000 0.042154
vt 0.750000 0.010000
vt 0.630000 0.042154
vt 0.542154 0.130000
vt 0.510000 0.250000
vt 0.542154 0.370000
vt 0.630000 0.457846
vn -0.3620 0.3352 -0.8698
vn -0.2602 0.7259 -0.6367
vn -0.2014 0.9514 -0.2331
vn -0.2014 0.9514 0.2331
vn -0.2602 0.7259 0.6367
vn -0.3620 0.3352 0.8698
vn -0.4796 -0.1158 0.8698
vn -0.5815 -0.5064 0.6367
vn -0.6403 -0.7319 0.2331
vn -0.6403 -0.7320 -0.2331
vn -0.5815 -0.5064 -0.6367
vn -0.4796 -0.1158 -0.8698
vn 0.9677 -0.2523 -0.0000
usemtl None
s off
f 1/1/1 7/2/1 2/3/1
f 2/3/2 7/2/2 3/4/2
f 3/4/3 7/2/3 4/5/3
f 4/5/4 7/2/4 5/6/4
f 5/6/5 7/2/5 6/7/5
f 6/7/6 7/2/6 8/8/6
f 8/8/7 7/2/7 9/9/7
f 9/9/8 7/2/8 10/10/8
f 10/10/9 7/2/9 11/11/9
f 11/11/10 7/2/10 12/12/10
f 12/12/11 7/2/11 13/13/11
f 13/13/12 7/2/12 1/1/12
f 1/14/13 2/15/13 3/16/13 4/17/13 5/18/13 6/19/13 8/20/13 9/21/13 10/22/13 11/23/13 12/24/13 13/25/13
o Cone.001
v -0.391530 0.629756 -0.042115
v -0.386331 0.649698 -0.036593
v -0.382525 0.664297 -0.021507
v -0.381132 0.669640 -0.000898
v -0.382525 0.664297 0.019710
v -0.386331 0.649698 0.034797
v -0.471297 0.650552 -0.000898
v -0.391530 0.629756 0.040319
v -0.396729 0.609814 0.034797
v -0.400535 0.595216 0.019710
v -0.401928 0.589873 -0.000898
v -0.400535 0.595216 -0.021507
v -0.396729 0.609814 -0.036593
vt 0.250000 0.490000
vt 0.250000 0.250000
vt 0.370000 0.457846
vt 0.457846 0.370000
vt 0.490000 0.250000
vt 0.457846 0.130000
vt 0.370000 0.042154
vt 0.250000 0.010000
vt 0.130000 0.042154
vt 0.042154 0.130000
vt 0.010000 0.250000
vt 0.042154 0.370000
vt 0.130000 0.457846
vt 0.750000 0.490000
vt 0.870000 0.457846
vt 0.957846 0.370000
vt 0.990000 0.250000
vt 0.957846 0.130000
vt 0.870000 0.042154
vt 0.750000 0.010000
vt 0.630000 0.042154
vt 0.542154 0.130000
vt 0.510000 0.250000
vt 0.542154 0.370000
vt 0.630000 0.457846
vn -0.3620 0.3352 -0.8698
vn -0.2602 0.7259 -0.6367
vn -0.2014 0.9514 -0.2331
vn -0.2014 0.9514 0.2331
vn -0.2602 0.7259 0.6367
vn -0.3620 0.3352 0.8698
vn -0.4796 -0.1158 0.8698
vn -0.5815 -0.5064 0.6367
vn -0.6403 -0.7319 0.2331
vn -0.6403 -0.7320 -0.2331
vn -0.5815 -0.5064 -0.6367
vn -0.4796 -0.1158 -0.8698
vn 0.9677 -0.2523 0.0000
usemtl None
s off
f 14/26/14 20/27/14 15/28/14
f 15/28/15 20/27/15 16/29/15
f 16/29/16 20/27/16 17/30/16
f 17/30/17 20/27/17 18/31/17
f 18/31/18 20/27/18 19/32/18
f 19/32/19 20/27/19 21/33/19
f 21/33/20 20/27/20 22/34/20
f 22/34/21 20/27/21 23/35/21
f 23/35/22 20/27/22 24/36/22
f 24/36/23 20/27/23 25/37/23
f 25/37/24 20/27/24 26/38/24
f 26/38/25 20/27/25 14/26/25
f 14/39/26 15/40/26 16/41/26 17/42/26 18/43/26 19/44/26 21/45/26 22/46/26 23/47/26 24/48/26 25/49/26 26/50/26
o Cone.002
v -0.391873 0.622346 0.140382
v -0.386674 0.642288 0.145904
v -0.382868 0.656887 0.160990
v -0.381475 0.662230 0.181599
v -0.382868 0.656887 0.202207
v -0.386674 0.642288 0.217294
v -0.471641 0.643142 0.181599
v -0.391873 0.622346 0.222816
v -0.397072 0.602404 0.217294
v -0.400878 0.587806 0.202207
v -0.402271 0.582462 0.181599
v -0.400878 0.587806 0.160990
v -0.397072 0.602404 0.145904
vt 0.250000 0.490000
vt 0.250000 0.250000
vt 0.370000 0.457846
vt 0.457846 0.370000
vt 0.490000 0.250000
vt 0.457846 0.130000
vt 0.370000 0.042154
vt 0.250000 0.010000
vt 0.130000 0.042154
vt 0.042154 0.130000
vt 0.010000 0.250000
vt 0.042154 0.370000
vt 0.130000 0.457846
vt 0.750000 0.490000
vt 0.870000 0.457846
vt 0.957846 0.370000
vt 0.990000 0.250000
vt 0.957846 0.130000
vt 0.870000 0.042154
vt 0.750000 0.010000
vt 0.630000 0.042154
vt 0.542154 0.130000
vt 0.510000 0.250000
vt 0.542154 0.370000
vt 0.630000 0.457846
vn -0.3620 0.3352 -0.8698
vn -0.2602 0.7259 -0.6367
vn -0.2014 0.9514 -0.2331
vn -0.2014 0.9514 0.2331
vn -0.2602 0.7259 0.6367
vn -0.3620 0.3352 0.8698
vn -0.4796 -0.1158 0.8698
vn -0.5815 -0.5064 0.6367
vn -0.6403 -0.7319 0.2331
vn -0.6403 -0.7319 -0.2331
vn -0.5815 -0.5064 -0.6367
vn -0.4796 -0.1158 -0.8698
vn 0.9677 -0.2523 -0.0000
usemtl None
s off
f 27/51/27 33/52/27 28/53/27
f 28/53/28 33/52/28 29/54/28
f 29/54/29 33/52/29 30/55/29
f 30/55/30 33/52/30 31/56/30
f 31/56/31 33/52/31 32/57/31
f 32/57/32 33/52/32 34/58/32
f 34/58/33 33/52/33 35/59/33
f 35/59/34 33/52/34 36/60/34
f 36/60/35 33/52/35 37/61/35
f 37/61/36 33/52/36 38/62/36
f 38/62/37 33/52/37 39/63/37
f 39/63/38 33/52/38 27/51/38
f 27/64/39 28/65/39 29/66/39 30/67/39 31/68/39 32/69/39 34/70/39 35/71/39 36/72/39 37/73/39 38/74/39 39/75/39
o Cone.003
v -0.413995 0.528819 -0.124267
v -0.408796 0.548761 -0.118745
v -0.404990 0.563359 -0.103658
v -0.403597 0.568703 -0.083050
v -0.404990 0.563359 -0.062441
v -0.408796 0.548761 -0.047355
v -0.493762 0.549615 -0.083050
v -0.413995 0.528819 -0.041833
v -0.419194 0.508877 -0.047355
v -0.423000 0.494279 -0.062441
v -0.424393 0.488935 -0.083050
v -0.423000 0.494279 -0.103658
v -0.419194 0.508877 -0.118745
vt 0.250000 0.490000
vt 0.250000 0.250000
vt 0.370000 0.457846
vt 0.457846 0.370000
vt 0.490000 0.250000
vt 0.457846 0.130000
vt 0.370000 0.042154
vt 0.250000 0.010000
vt 0.130000 0.042154
vt 0.042154 0.130000
vt 0.010000 0.250000
vt 0.042154 0.370000
vt 0.130000 0.457846
vt 0.750000 0.490000
vt 0.870000 0.457846
vt 0.957846 0.370000
vt 0.990000 0.250000
vt 0.957846 0.130000
vt 0.870000 0.042154
vt 0.750000 0.010000
vt 0.630000 0.042154
vt 0.542154 0.130000
vt 0.510000 0.250000
vt 0.542154 0.370000
vt 0.630000 0.457846
vn -0.3620 0.3352 -0.8698
vn -0.2602 0.7259 -0.6367
vn -0.2014 0.9514 -0.2331
vn -0.2014 0.9514 0.2331
vn -0.2602 0.7259 0.6367
vn -0.3620 0.3352 0.8698
vn -0.4796 -0.1158 0.8698
vn -0.5815 -0.5064 0.6367
vn -0.6403 -0.7319 0.2331
vn -0.6403 -0.7319 -0.2331
vn -0.5815 -0.5064 -0.6367
vn -0.4796 -0.1158 -0.8698
vn 0.9677 -0.2523 0.0000
usemtl None
s off
f 40/76/40 46/77/40 41/78/40
f 41/78/41 46/77/41 42/79/41
f 42/79/42 46/77/42 43/80/42
f 43/80/43 46/77/43 44/81/43
f 44/81/44 46/77/44 45/82/44
f 45/82/45 46/77/45 47/83/45
f 47/83/46 46/77/46 48/84/46
f 48/84/47 46/77/47 49/85/47
f 49/85/48 46/77/48 50/86/48
f 50/86/49 46/77/49 51/87/49
f 51/87/50 46/77/50 52/88/50
f 52/88/51 46/77/51 40/76/51
f 40/89/52 41/90/52 42/91/52 43/92/52 44/93/52 45/94/52 47/95/52 48/96/52 49/97/52 50/98/52 51/99/52 52/100/52
o Cone.004
v -0.415892 0.534412 0.041483
v -0.410693 0.554354 0.047005
v -0.406887 0.568953 0.062091
v -0.405494 0.574296 0.082699
v -0.406887 0.568953 0.103308
v -0.410693 0.554354 0.118394
v -0.495659 0.555208 0.082699
v -0.415892 0.534412 0.123916
v -0.421091 0.514470 0.118394
v -0.424897 0.499872 0.103308
v -0.426290 0.494529 0.082699
v -0.424897 0.499872 0.062091
v -0.421091 0.514470 0.047005
vt 0.250000 0.490000
vt 0.250000 0.250000
vt 0.370000 0.457846
vt 0.457846 0.370000
vt 0.490000 0.250000
vt 0.457846 0.130000
vt 0.370000 0.042154
vt 0.250000 0.010000
vt 0.130000 0.042154
vt 0.042154 0.130000
vt 0.010000 0.250000
vt 0.042154 0.370000
vt 0.130000 0.457846
vt 0.750000 0.490000
vt 0.870000 0.457846
vt 0.957846 0.370000
vt 0.990000 0.250000
vt 0.957846 0.130000
vt 0.870000 0.042154
vt 0.750000 0.010000
vt 0.630000 0.042154
vt 0.542154 0.130000
vt 0.510000 0.250000
vt 0.542154 0.370000
vt 0.630000 0.457846
vn -0.3620 0.3352 -0.8698
vn -0.2602 0.7259 -0.6367
vn -0.2014 0.9514 -0.2331
vn -0.2014 0.9514 0.2331
vn -0.2602 0.7259 0.6367
vn -0.3620 0.3352 0.8698
vn -0.4796 -0.1158 0.8698
vn -0.5815 -0.5064 0.6367
vn -0.6403 -0.7320 0.2331
vn -0.6403 -0.7320 -0.2331
vn -0.5815 -0.5064 -0.6367
vn -0.4796 -0.1158 -0.8698
vn 0.9677 -0.2523 -0.0000
usemtl None
s off
f 53/101/53 59/102/53 54/103/53
f 54/103/54 59/102/54 55/104/54
f 55/104/55 59/102/55 56/105/55
f 56/105/56 59/102/56 57/106/56
f 57/106/57 59/102/57 58/107/57
f 58/107/58 59/102/58 60/108/58
f 60/108/59 59/102/59 61/109/59
f 61/109/60 59/102/60 62/110/60
f 62/110/61 59/102/61 63/111/61
f 63/111/62 59/102/62 64/112/62
f 64/112/63 59/102/63 65/113/63
f 65/113/64 59/102/64 53/101/64
f 53/114/65 54/115/65 55/116/65 56/117/65 57/118/65 58/119/65 60/120/65 61/121/65 62/122/65 63/123/65 64/124/65 65/125/65
o Cone.005
v -0.441436 0.446550 -0.033340
v -0.436237 0.466491 -0.027818
v -0.432431 0.481090 -0.012731
v -0.431038 0.486433 0.007877
v -0.432431 0.481090 0.028485
v -0.436237 0.466491 0.043572
v -0.521203 0.467346 0.007877
v -0.441436 0.446550 0.049094
v -0.446635 0.426608 0.043572
v -0.450440 0.412009 0.028485
v -0.451834 0.406666 0.007877
v -0.450440 0.412009 -0.012731
v -0.446635 0.426608 -0.027818
vt 0.250000 0.490000
vt 0.250000 0.250000
vt 0.370000 0.457846
vt 0.457846 0.370000
vt 0.490000 0.250000
vt 0.457846 0.130000
vt 0.370000 0.042154
vt 0.250000 0.010000
vt 0.130000 0.042154
vt 0.042154 0.130000
vt 0.010000 0.250000
vt 0.042154 0.370000
vt 0.130000 0.457846
vt 0.750000 0.490000
vt 0.870000 0.457846
vt 0.957846 0.370000
vt 0.990000 0.250000
vt 0.957846 0.130000
vt 0.870000 0.042154
vt 0.750000 0.010000
vt 0.630000 0.042154
vt 0.542154 0.130000
vt 0.510000 0.250000
vt 0.542154 0.370000
vt 0.630000 0.457846
vn -0.3620 0.3352 -0.8698
vn -0.2602 0.7259 -0.6367
vn -0.2014 0.9514 -0.2331
vn -0.2014 0.9514 0.2331
vn -0.2602 0.7259 0.6367
vn -0.3620 0.3352 0.8698
vn -0.4796 -0.1158 0.8698
vn -0.5815 -0.5064 0.6367
vn -0.6403 -0.7319 0.2331
vn -0.6403 -0.7319 -0.2331
vn -0.5815 -0.5064 -0.6367
vn -0.4796 -0.1158 -0.8698
vn 0.9677 -0.2523 0.0000
usemtl None
s off
f 66/126/66 72/127/66 67/128/66
f 67/128/67 72/127/67 68/129/67
f 68/129/68 72/127/68 69/130/68
f 69/130/69 72/127/69 70/131/69
f 70/131/70 72/127/70 71/132/70
f 71/132/71 72/127/71 73/133/71
f 73/133/72 72/127/72 74/134/72
f 74/134/73 72/127/73 75/135/73
f 75/135/74 72/127/74 76/136/74
f 76/136/75 72/127/75 77/137/75
f 77/137/76 72/127/76 78/138/76
f 78/138/77 72/127/77 66/126/77
f 66/139/78 67/140/78 68/141/78 69/142/78 70/143/78 71/144/78 73/145/78 74/146/78 75/147/78 76/148/78 77/149/78 78/150/78
o Cone.006
v -0.359884 0.732716 -0.135581
v -0.354685 0.752658 -0.130059
v -0.350880 0.767257 -0.114972
v -0.349487 0.772600 -0.094364
v -0.350880 0.767257 -0.073755
v -0.354685 0.752658 -0.058669
v -0.439652 0.753512 -0.094364
v -0.359884 0.732716 -0.053147
v -0.365083 0.712774 -0.058669
v -0.368889 0.698176 -0.073755
v -0.370282 0.692832 -0.094364
v -0.368889 0.698176 -0.114972
v -0.365083 0.712774 -0.130059
vt 0.250000 0.490000
vt 0.250000 0.250000
vt 0.370000 0.457846
vt 0.457846 0.370000
vt 0.490000 0.250000
vt 0.457846 0.130000
vt 0.370000 0.042154
vt 0.250000 0.010000
vt 0.130000 0.042154
vt 0.042154 0.130000
vt 0.010000 0.250000
vt 0.042154 0.370000
vt 0.130000 0.457846
vt 0.750000 0.490000
vt 0.870000 0.457846
vt 0.957846 0.370000
vt 0.990000 0.250000
vt 0.957846 0.130000
vt 0.870000 0.042154
vt 0.750000 0.010000
vt 0.630000 0.042154
vt 0.542154 0.130000
vt 0.510000 0.250000
vt 0.542154 0.370000
vt 0.630000 0.457846
vn -0.3620 0.3352 -0.8698
vn -0.2602 0.7259 -0.6367
vn -0.2014 0.9514 -0.2331
vn -0.2014 0.9514 0.2331
vn -0.2602 0.7259 0.6367
vn -0.3620 0.3352 0.8698
vn -0.4796 -0.1158 0.8698
vn -0.5815 -0.5064 0.6367
vn -0.6403 -0.7319 0.2331
vn -0.6403 -0.7320 -0.2331
vn -0.5815 -0.5064 -0.6367
vn -0.4796 -0.1158 -0.8698
vn 0.9677 -0.2523 0.0000
usemtl None
s off
f 79/151/79 85/152/79 80/153/79
f 80/153/80 85/152/80 81/154/80
f 81/154/81 85/152/81 82/155/81
f 82/155/82 85/152/82 83/156/82
f 83/156/83 85/152/83 84/157/83
f 84/157/84 85/152/84 86/158/84
f 86/158/85 85/152/85 87/159/85
f 87/159/86 85/152/86 88/160/86
f 88/160/87 85/152/87 89/161/87
f 89/161/88 85/152/88 90/162/88
f 90/162/89 85/152/89 91/163/89
f 91/163/90 85/152/90 79/151/90
f 79/164/91 80/165/91 81/166/91 82/167/91 83/168/91 84/169/91 86/170/91 87/171/91 88/172/91 89/173/91 90/174/91 91/175/91
o Cone.007
v -0.362988 0.729970 0.052549
v -0.357789 0.749912 0.058071
v -0.353983 0.764511 0.073158
v -0.352590 0.769854 0.093766
v -0.353983 0.764511 0.114375
v -0.357789 0.749912 0.129461
v -0.442756 0.750766 0.093766
v -0.362988 0.729970 0.134983
v -0.368187 0.710029 0.129461
v -0.371993 0.695430 0.114375
v -0.373386 0.690087 0.093766
v -0.371993 0.695430 0.073158
v -0.368187 0.710029 0.058071
vt 0.250000 0.490000
vt 0.250000 0.250000
vt 0.370000 0.457846
vt 0.457846 0.370000
vt 0.490000 0.250000
vt 0.457846 0.130000
vt 0.370000 0.042154
vt 0.250000 0.010000
vt 0.130000 0.042154
vt 0.042154 0.130000
vt 0.010000 0.250000
vt 0.042154 0.370000
vt 0.130000 0.457846
vt 0.750000 0.490000
vt 0.870000 0.457846
vt 0.957846 0.370000
vt 0.990000 0.250000
vt 0.957846 0.130000
vt 0.870000 0.042154
vt 0.750000 0.010000
vt 0.630000 0.042154
vt 0.542154 0.130000
vt 0.510000 0.250000
vt 0.542154 0.370000
vt 0.630000 0.457846
vn -0.3620 0.3352 -0.8698
vn -0.2602 0.7259 -0.6367
vn -0.2014 0.9514 -0.2331
vn -0.2014 0.9514 0.2331
vn -0.2602 0.7259 0.6367
vn -0.3620 0.3352 0.8698
vn -0.4796 -0.1158 0.8698
vn -0.5815 -0.5064 0.6367
vn -0.6403 -0.7320 0.2331
vn -0.6403 -0.7320 -0.2331
vn -0.5815 -0.5064 -0.6367
vn -0.4796 -0.1158 -0.8698
vn 0.9677 -0.2523 0.0000
usemtl None
s off
f 92/176/92 98/177/92 93/178/92
f 93/178/93 98/177/93 94/179/93
f 94/179/94 98/177/94 95/180/94
f 95/180/95 98/177/95 96/181/95
f 96/181/96 98/177/96 97/182/96
f 97/182/97 98/177/97 99/183/97
f 99/183/98 98/177/98 100/184/98
f 100/184/99 98/177/99 101/185/99
f 101/185/100 98/177/100 102/186/100
f 102/186/101 98/177/101 103/187/101
f 103/187/102 98/177/102 104/188/102
f 104/188/103 98/177/103 92/176/103
f 92/189/104 93/190/104 94/191/104 95/192/104 96/193/104 97/194/104 99/195/104 100/196/104 101/197/104 102/198/104 103/199/104 104/200/104
o Cone.008
v -0.340227 0.827497 -0.042938
v -0.335028 0.847438 -0.037416
v -0.331222 0.862037 -0.022329
v -0.329829 0.867380 -0.001721
v -0.331222 0.862037 0.018888
v -0.335028 0.847438 0.033974
v -0.419994 0.848292 -0.001721
v -0.340227 0.827497 0.039496
v -0.345426 0.807555 0.033974
v -0.349232 0.792956 0.018888
v -0.350625 0.787613 -0.001721
v -0.349232 0.792956 -0.022329
v -0.345426 0.807555 -0.037416
vt 0.250000 0.490000
vt 0.250000 0.250000
vt 0.370000 0.457846
vt 0.457846 0.370000
vt 0.490000 0.250000
vt 0.457846 0.130000
vt 0.370000 0.042154
vt 0.250000 0.010000
vt 0.130000 0.042154
vt 0.042154 0.130000
vt 0.010000 0.250000
vt 0.042154 0.370000
vt 0.130000 0.457846
vt 0.750000 0.490000
vt 0.870000 0.457846
vt 0.957846 0.370000
vt 0.990000 0.250000
vt 0.957846 0.130000
vt 0.870000 0.042154
vt 0.750000 0.010000
vt 0.630000 0.042154
vt 0.542154 0.130000
vt 0.510000 0.250000
vt 0.542154 0.370000
vt 0.630000 0.457846
vn -0.3620 0.3352 -0.8698
vn -0.2602 0.7259 -0.6367
vn -0.2014 0.9514 -0.2331
vn -0.2014 0.9514 0.2331
vn -0.2602 0.7259 0.6367
vn -0.3620 0.3352 0.8698
vn -0.4796 -0.1158 0.8698
vn -0.5815 -0.5064 0.6367
vn -0.6403 -0.7319 0.2331
vn -0.6403 -0.7320 -0.2331
vn -0.5815 -0.5064 -0.6367
vn -0.4796 -0.1158 -0.8698
vn 0.9677 -0.2523 0.0000
usemtl None
s off
f 105/201/105 111/202/105 106/203/105
f 106/203/106 111/202/106 107/204/106
f 107/204/107 111/202/107 108/205/107
f 108/205/108 111/202/108 109/206/108
f 109/206/109 111/202/109 110/207/109
f 110/207/110 111/202/110 112/208/110
f 112/208/111 111/202/111 113/209/111
f 113/209/112 111/202/112 114/210/112
f 114/210/113 111/202/113 115/211/113
f 115/211/114 111/202/114 116/212/114
f 116/212/115 111/202/115 117/213/115
f 117/213/116 111/202/116 105/201/116
f 105/214/117 106/215/117 107/216/117 108/217/117 109/218/117 110/219/117 112/220/117 113/221/117 114/222/117 115/223/117 116/224/117 117/225/117
