# Blender v2.80 (sub 75) OBJ File: 'untitled.blend'
# www.blender.org
mtllib cell.mtl
o Circle.007_Circle.013
v -0.000000 0.002501 -0.860466
v -0.745186 0.002501 -0.430233
v -0.745186 0.002501 0.430233
v 0.000000 0.002501 0.860466
v 0.745186 0.002501 0.430233
v 0.745186 0.002501 -0.430233
v -0.000000 0.212286 -0.761205
v -0.659223 0.212286 -0.380603
v -0.659223 0.212286 0.380603
v 0.000000 0.212286 0.761205
v 0.659223 0.212286 0.380602
v 0.659223 0.212286 -0.380602
vt 0.000000 0.000000
vt 0.000000 0.000000
vt 0.000000 0.000000
vt 0.000000 0.000000
vt 0.000000 0.000000
vt 0.000000 0.000000
vt 0.000000 0.000000
vt 0.000000 0.000000
vt 0.000000 0.000000
vt 0.000000 0.000000
vt 0.000000 0.000000
vt 0.000000 0.000000
vn 0.0000 -1.0000 0.0000
vn 0.0000 1.0000 0.0000
vn 0.4627 0.3792 -0.8014
vn 0.4627 0.3792 0.8014
vn -0.9253 0.3792 0.0000
vn 0.9253 0.3792 0.0000
vn -0.4627 0.3792 0.8014
vn -0.4627 0.3792 -0.8014
usemtl Tmp
s off
f 1/1/1 6/2/1 2/3/1
f 2/3/1 6/2/1 3/4/1
f 6/2/1 5/5/1 3/4/1
f 4/6/1 3/4/1 5/5/1
f 7/7/2 8/8/2 12/9/2
f 8/8/2 9/10/2 12/9/2
f 12/9/2 9/10/2 11/11/2
f 10/12/2 11/11/2 9/10/2
f 1/1/3 7/7/3 12/9/3 6/2/3
f 5/5/4 11/11/4 10/12/4 4/6/4
f 3/4/5 9/10/5 8/8/5 2/3/5
f 6/2/6 12/9/6 11/11/6 5/5/6
f 4/6/7 10/12/7 9/10/7 3/4/7
f 2/3/8 8/8/8 7/7/8 1/1/8
