# Blender v2.80 (sub 75) OBJ File: 'untitled.blend'
# www.blender.org
mtllib floor.mtl
o Circle
v 0.000000 0.000000 -1.000000
v -0.866025 0.000000 -0.500000
v -0.866025 0.000000 0.500000
v 0.000000 0.000000 1.000000
v 0.866025 0.000000 0.500000
v 0.866025 0.000000 -0.500000
vt 0.000000 0.000000
vt 0.000000 0.000000
vt 0.000000 0.000000
vt 0.000000 0.000000
vt 0.000000 0.000000
vt 0.000000 0.000000
vn 0.0000 -1.0000 0.0000
usemtl Tmp
s off
f 1/1/1 6/2/1 2/3/1
f 2/3/1 6/2/1 3/4/1
f 6/2/1 5/5/1 3/4/1
f 4/6/1 3/4/1 5/5/1
o Circle.001_Circle.003
v 1.732051 0.000000 -1.000000
v 0.866025 0.000000 -0.500000
v 0.866026 0.000000 0.500000
v 1.732051 0.000000 1.000000
v 2.598076 0.000000 0.500000
v 2.598076 0.000000 -0.500000
vt 0.000000 0.000000
vt 0.000000 0.000000
vt 0.000000 0.000000
vt 0.000000 0.000000
vt 0.000000 0.000000
vt 0.000000 0.000000
vn 0.0000 -1.0000 0.0000
usemtl None
s off
f 7/7/2 12/8/2 8/9/2
f 8/9/2 12/8/2 9/10/2
f 12/8/2 11/11/2 9/10/2
f 10/12/2 9/10/2 11/11/2
o Circle.002_Circle.004
v 0.866026 0.000000 0.500000
v 0.000000 0.000000 1.000000
v 0.000000 0.000000 2.000000
v 0.866026 0.000000 2.500000
v 1.732051 0.000000 2.000000
v 1.732051 0.000000 1.000000
vt 0.000000 0.000000
vt 0.000000 0.000000
vt 0.000000 0.000000
vt 0.000000 0.000000
vt 0.000000 0.000000
vt 0.000000 0.000000
vn 0.0000 -1.0000 0.0000
usemtl None
s off
f 13/13/3 18/14/3 14/15/3
f 14/15/3 18/14/3 15/16/3
f 18/14/3 17/17/3 15/16/3
f 16/18/3 15/16/3 17/17/3
o Circle.003_Circle.005
v -1.732051 0.000000 -1.000000
v -2.598076 0.000000 -0.500000
v -2.598076 0.000000 0.500000
v -1.732051 0.000000 1.000000
v -0.866025 0.000000 0.500000
v -0.866025 0.000000 -0.500000
vt 0.000000 0.000000
vt 0.000000 0.000000
vt 0.000000 0.000000
vt 0.000000 0.000000
vt 0.000000 0.000000
vt 0.000000 0.000000
vn 0.0000 -1.0000 0.0000
usemtl None
s off
f 19/19/4 24/20/4 20/21/4
f 20/21/4 24/20/4 21/22/4
f 24/20/4 23/23/4 21/22/4
f 22/24/4 21/22/4 23/23/4
o Circle.004
v -0.866025 0.000000 0.500000
v -1.732051 0.000000 1.000000
v -1.732051 0.000000 2.000000
v -0.866025 0.000000 2.500000
v 0.000000 0.000000 2.000000
v 0.000000 0.000000 1.000000
vt 0.000000 0.000000
vt 0.000000 0.000000
vt 0.000000 0.000000
vt 0.000000 0.000000
vt 0.000000 0.000000
vt 0.000000 0.000000
vn 0.0000 -1.0000 0.0000
usemtl None
s off
f 25/25/5 30/26/5 26/27/5
f 26/27/5 30/26/5 27/28/5
f 30/26/5 29/29/5 27/28/5
f 28/30/5 27/28/5 29/29/5
o Circle.005_Circle.004
v 0.866026 0.000000 -2.500000
v 0.000000 0.000000 -2.000000
v 0.000000 0.000000 -1.000000
v 0.866026 0.000000 -0.500000
v 1.732051 0.000000 -1.000000
v 1.732051 0.000000 -2.000000
vt 0.000000 0.000000
vt 0.000000 0.000000
vt 0.000000 0.000000
vt 0.000000 0.000000
vt 0.000000 0.000000
vt 0.000000 0.000000
vn 0.0000 -1.0000 0.0000
usemtl None
s off
f 31/31/6 36/32/6 32/33/6
f 32/33/6 36/32/6 33/34/6
f 36/32/6 35/35/6 33/34/6
f 34/36/6 33/34/6 35/35/6
o Circle.006_Circle.004
v -0.866025 0.000000 -2.500000
v -1.732051 0.000000 -2.000000
v -1.732051 0.000000 -1.000000
v -0.866025 0.000000 -0.500000
v 0.000000 0.000000 -1.000000
v 0.000000 0.000000 -2.000000
vt 0.000000 0.000000
vt 0.000000 0.000000
vt 0.000000 0.000000
vt 0.000000 0.000000
vt 0.000000 0.000000
vt 0.000000 0.000000
vn 0.0000 -1.0000 0.0000
usemtl None
s off
f 37/37/7 42/38/7 38/39/7
f 38/39/7 42/38/7 39/40/7
f 42/38/7 41/41/7 39/40/7
f 40/42/7 39/40/7 41/41/7
o Connector.Central.Tube_Circle.006
v 0.866026 0.200000 -0.000000
v 0.866026 0.192388 0.038268
v 0.866026 0.170711 0.070711
v 0.866026 0.138268 0.092388
v 0.866026 0.100000 0.100000
v 0.866026 0.061732 0.092388
v 0.866026 0.029289 0.070711
v 0.866026 0.007612 0.038268
v 0.866026 0.000000 0.000000
v 0.866026 0.007612 -0.038268
v 0.866026 0.029289 -0.070711
v 0.866026 0.061732 -0.092388
v 0.866026 0.100000 -0.100000
v 0.866026 0.138268 -0.092388
v 0.866026 0.170711 -0.070711
v 0.866026 0.192388 -0.038268
v 0.448668 0.200000 0.000000
v 0.448668 0.192388 0.038268
v 0.448668 0.170711 0.070711
v 0.448668 0.138268 0.092388
v 0.448668 0.100000 0.100000
v 0.448668 0.061732 0.092388
v 0.448668 0.029289 0.070711
v 0.448668 0.007612 0.038268
v 0.448668 0.000000 0.000000
v 0.448668 0.007612 -0.038268
v 0.448668 0.029289 -0.070711
v 0.448668 0.061732 -0.092388
v 0.448668 0.100000 -0.100000
v 0.448668 0.138268 -0.092388
v 0.448668 0.170711 -0.070711
v 0.448668 0.192388 -0.038268
vt 0.000000 0.000000
vt 0.000000 0.000000
vt 0.000000 0.000000
vt 0.000000 0.000000
vt 0.000000 0.000000
vt 0.000000 0.000000
vt 0.000000 0.000000
vt 0.000000 0.000000
vt 0.000000 0.000000
vt 0.000000 0.000000
vt 0.000000 0.000000
vt 0.000000 0.000000
vt 0.000000 0.000000
vt 0.000000 0.000000
vt 0.000000 0.000000
vt 0.000000 0.000000
vt 0.000000 0.000000
vt 0.000000 0.000000
vt 0.000000 0.000000
vt 0.000000 0.000000
vt 0.000000 0.000000
vt 0.000000 0.000000
vt 0.000000 0.000000
vt 0.000000 0.000000
vt 0.000000 0.000000
vt 0.000000 0.000000
vt 0.000000 0.000000
vt 0.000000 0.000000
vt 0.000000 0.000000
vt 0.000000 0.000000
vt 0.000000 0.000000
vt 0.000000 0.000000
vn 0.0000 -0.1951 -0.9808
vn 0.0000 -0.1951 0.9808
vn 0.0000 0.1951 -0.9808
vn 0.0000 -0.5556 0.8315
vn 0.0000 0.5556 -0.8315
vn 0.0000 -0.8315 0.5556
vn 0.0000 0.8315 -0.5556
vn 0.0000 -0.9808 0.1951
vn 0.0000 0.9808 0.1951
vn 0.0000 0.9808 -0.1951
vn 0.0000 -0.9808 -0.1951
vn 0.0000 0.8315 0.5556
vn 0.0000 -0.8315 -0.5556
vn 0.0000 0.5556 0.8315
vn 0.0000 -0.5556 -0.8315
vn 0.0000 0.1951 0.9808
vn -1.0000 0.0000 0.0000
vn 1.0000 0.0000 0.0000
usemtl ConnectorMetal1
s off
f 55/43/8 54/44/8 70/45/8 71/46/8
f 48/47/9 47/48/9 63/49/9 64/50/9
f 56/51/10 55/43/10 71/46/10 72/52/10
f 49/53/11 48/47/11 64/50/11 65/54/11
f 57/55/12 56/51/12 72/52/12 73/56/12
f 50/57/13 49/53/13 65/54/13 66/58/13
f 58/59/14 57/55/14 73/56/14 74/60/14
f 51/61/15 50/57/15 66/58/15 67/62/15
f 44/63/16 43/64/16 59/65/16 60/66/16
f 43/64/17 58/59/17 74/60/17 59/65/17
f 52/67/18 51/61/18 67/62/18 68/68/18
f 45/69/19 44/63/19 60/66/19 61/70/19
f 53/71/20 52/67/20 68/68/20 69/72/20
f 46/73/21 45/69/21 61/70/21 62/74/21
f 54/44/22 53/71/22 69/72/22 70/45/22
f 47/48/23 46/73/23 62/74/23 63/49/23
f 60/66/24 59/65/24 74/60/24 73/56/24 72/52/24 71/46/24 70/45/24 69/72/24 68/68/24 67/62/24 66/58/24 65/54/24 64/50/24 63/49/24 62/74/24 61/70/24
f 44/63/25 45/69/25 46/73/25 47/48/25 48/47/25 49/53/25 50/57/25 51/61/25 52/67/25 53/71/25 54/44/25 55/43/25 56/51/25 57/55/25 58/59/25 43/64/25
o Connector.Central.Supports_Circle.007
v 0.808469 0.107356 -0.000000
v 0.808469 0.052064 0.109133
v 0.808469 0.000000 0.154337
v 0.788807 0.000000 0.154337
v 0.788807 0.052064 0.109133
v 0.788807 0.107356 -0.000000
v 0.808469 0.000000 -0.154337
v 0.808469 0.052064 -0.109133
v 0.788807 0.000000 -0.154337
v 0.788807 0.052064 -0.109133
v 0.528789 0.107356 -0.000000
v 0.528789 0.052064 0.109133
v 0.528789 0.000000 0.154337
v 0.509126 0.000000 0.154337
v 0.509126 0.052064 0.109133
v 0.509126 0.107356 -0.000000
v 0.528789 0.000000 -0.154337
v 0.528789 0.052064 -0.109133
v 0.509126 0.000000 -0.154337
v 0.509126 0.052064 -0.109133
vt 0.000000 0.000000
vt 0.000000 0.000000
vt 0.000000 0.000000
vt 0.000000 0.000000
vt 0.000000 0.000000
vt 0.000000 0.000000
vt 0.000000 0.000000
vt 0.000000 0.000000
vt 0.000000 0.000000
vt 0.000000 0.000000
vt 0.000000 0.000000
vt 0.000000 0.000000
vt 0.000000 0.000000
vt 0.000000 0.000000
vt 0.000000 0.000000
vt 0.000000 0.000000
vt 0.000000 0.000000
vt 0.000000 0.000000
vt 0.000000 0.000000
vt 0.000000 0.000000
vn -1.0000 0.0000 0.0000
vn 1.0000 0.0000 0.0000
vn -0.0000 -0.8920 -0.4520
vn -0.0000 -0.8920 0.4520
vn 0.0000 1.0000 0.0000
vn 0.0000 -0.6556 -0.7551
vn 0.0000 -0.6556 0.7551
usemtl ConnectorMetal1
s off
f 76/75/26 75/76/26 82/77/26 81/78/26 77/79/26
f 79/80/27 78/81/27 83/82/27 84/83/27 80/84/27
f 75/76/28 76/75/28 79/80/28 80/84/28
f 82/77/29 75/76/29 80/84/29 84/83/29
f 77/79/30 81/78/30 83/82/30 78/81/30
f 76/75/31 77/79/31 78/81/31 79/80/31
f 81/78/32 82/77/32 84/83/32 83/82/32
f 86/85/26 85/86/26 92/87/26 91/88/26 87/89/26
f 89/90/27 88/91/27 93/92/27 94/93/27 90/94/27
f 85/86/28 86/85/28 89/90/28 90/94/28
f 92/87/29 85/86/29 90/94/29 94/93/29
f 87/89/30 91/88/30 93/92/30 88/91/30
f 86/85/31 87/89/31 88/91/31 89/90/31
f 91/88/32 92/87/32 94/93/32 93/92/32
o Connector.Left.Tube_Circle.009
v 0.866025 0.100000 0.268834
v 0.866025 0.096194 0.287968
v 0.866025 0.085355 0.304189
v 0.866025 0.069134 0.315028
v 0.866025 0.050000 0.318834
v 0.866025 0.030866 0.315028
v 0.866025 0.014645 0.304189
v 0.866025 0.003806 0.287968
v 0.866025 0.000000 0.268834
v 0.866025 0.003806 0.249699
v 0.866025 0.014645 0.233478
v 0.866025 0.030866 0.222640
v 0.866025 0.050000 0.218834
v 0.866025 0.069134 0.222640
v 0.866025 0.085355 0.233478
v 0.866025 0.096194 0.249699
v 0.448668 0.100000 0.268834
v 0.448668 0.096194 0.287968
v 0.448668 0.085355 0.304189
v 0.448668 0.069134 0.315028
v 0.448668 0.050000 0.318834
v 0.448668 0.030866 0.315028
v 0.448668 0.014645 0.304189
v 0.448668 0.003806 0.287968
v 0.448668 0.000000 0.268834
v 0.448668 0.003806 0.249699
v 0.448668 0.014645 0.233478
v 0.448668 0.030866 0.222640
v 0.448668 0.050000 0.218834
v 0.448668 0.069134 0.222640
v 0.448668 0.085355 0.233478
v 0.448668 0.096194 0.249699
vt 0.000000 0.000000
vt 0.000000 0.000000
vt 0.000000 0.000000
vt 0.000000 0.000000
vt 0.000000 0.000000
vt 0.000000 0.000000
vt 0.000000 0.000000
vt 0.000000 0.000000
vt 0.000000 0.000000
vt 0.000000 0.000000
vt 0.000000 0.000000
vt 0.000000 0.000000
vt 0.000000 0.000000
vt 0.000000 0.000000
vt 0.000000 0.000000
vt 0.000000 0.000000
vt 0.000000 0.000000
vt 0.000000 0.000000
vt 0.000000 0.000000
vt 0.000000 0.000000
vt 0.000000 0.000000
vt 0.000000 0.000000
vt 0.000000 0.000000
vt 0.000000 0.000000
vt 0.000000 0.000000
vt 0.000000 0.000000
vt 0.000000 0.000000
vt 0.000000 0.000000
vt 0.000000 0.000000
vt 0.000000 0.000000
vt 0.000000 0.000000
vt 0.000000 0.000000
vn 0.0000 -0.1951 -0.9808
vn -0.0000 -0.1951 0.9808
vn 0.0000 0.1951 -0.9808
vn 0.0000 -0.5556 0.8315
vn 0.0000 0.5556 -0.8315
vn 0.0000 -0.8315 0.5556
vn 0.0000 0.8315 -0.5556
vn -0.0000 -0.9808 0.1951
vn 0.0000 0.9808 0.1951
vn 0.0000 0.9808 -0.1951
vn -0.0000 -0.9808 -0.1951
vn 0.0000 0.8315 0.5556
vn -0.0000 -0.8315 -0.5556
vn 0.0000 0.5556 0.8315
vn 0.0000 -0.5556 -0.8315
vn 0.0000 0.1951 0.9808
vn -1.0000 -0.0000 0.0000
vn 1.0000 0.0000 0.0000
usemtl ConnectorMetal1
s off
f 107/95/33 106/96/33 122/97/33 123/98/33
f 100/99/34 99/100/34 115/101/34 116/102/34
f 108/103/35 107/95/35 123/98/35 124/104/35
f 101/105/36 100/99/36 116/102/36 117/106/36
f 109/107/37 108/103/37 124/104/37 125/108/37
f 102/109/38 101/105/38 117/106/38 118/110/38
f 110/111/39 109/107/39 125/108/39 126/112/39
f 103/113/40 102/109/40 118/110/40 119/114/40
f 96/115/41 95/116/41 111/117/41 112/118/41
f 95/116/42 110/111/42 126/112/42 111/117/42
f 104/119/43 103/113/43 119/114/43 120/120/43
f 97/121/44 96/115/44 112/118/44 113/122/44
f 105/123/45 104/119/45 120/120/45 121/124/45
f 98/125/46 97/121/46 113/122/46 114/126/46
f 106/96/47 105/123/47 121/124/47 122/97/47
f 99/100/48 98/125/48 114/126/48 115/101/48
f 112/118/49 111/117/49 126/112/49 125/108/49 124/104/49 123/98/49 122/97/49 121/124/49 120/120/49 119/114/49 118/110/49 117/106/49 116/102/49 115/101/49 114/126/49 113/122/49
f 96/115/50 97/121/50 98/125/50 99/100/50 100/99/50 101/105/50 102/109/50 103/113/50 104/119/50 105/123/50 106/96/50 107/95/50 108/103/50 109/107/50 110/111/50 95/116/50
o Connector.Left.Supports_Circle.010
v 0.808469 0.053678 0.268834
v 0.808469 0.026032 0.323400
v 0.808469 0.000000 0.346002
v 0.788807 0.000000 0.346002
v 0.788807 0.026032 0.323400
v 0.788807 0.053678 0.268834
v 0.808469 0.000000 0.191665
v 0.808469 0.026032 0.214267
v 0.788807 0.000000 0.191665
v 0.788807 0.026032 0.214267
v 0.528789 0.053678 0.268834
v 0.528789 0.026032 0.323400
v 0.528789 0.000000 0.346002
v 0.509126 0.000000 0.346002
v 0.509126 0.026032 0.323400
v 0.509126 0.053678 0.268834
v 0.528789 0.000000 0.191665
v 0.528789 0.026032 0.214267
v 0.509126 0.000000 0.191665
v 0.509126 0.026032 0.214267
vt 0.000000 0.000000
vt 0.000000 0.000000
vt 0.000000 0.000000
vt 0.000000 0.000000
vt 0.000000 0.000000
vt 0.000000 0.000000
vt 0.000000 0.000000
vt 0.000000 0.000000
vt 0.000000 0.000000
vt 0.000000 0.000000
vt 0.000000 0.000000
vt 0.000000 0.000000
vt 0.000000 0.000000
vt 0.000000 0.000000
vt 0.000000 0.000000
vt 0.000000 0.000000
vt 0.000000 0.000000
vt 0.000000 0.000000
vt 0.000000 0.000000
vt 0.000000 0.000000
vn -1.0000 0.0000 0.0000
vn 1.0000 -0.0000 0.0000
vn 0.0000 -0.8920 -0.4520
vn 0.0000 -0.8920 0.4520
vn 0.0000 1.0000 0.0000
vn 0.0000 -0.6556 -0.7551
vn 0.0000 -0.6556 0.7551
usemtl ConnectorMetal1
s off
f 128/127/51 127/128/51 134/129/51 133/130/51 129/131/51
f 131/132/52 130/133/52 135/134/52 136/135/52 132/136/52
f 127/128/53 128/127/53 131/132/53 132/136/53
f 134/129/54 127/128/54 132/136/54 136/135/54
f 129/131/55 133/130/55 135/134/55 130/133/55
f 128/127/56 129/131/56 130/133/56 131/132/56
f 133/130/57 134/129/57 136/135/57 135/134/57
f 138/137/51 137/138/51 144/139/51 143/140/51 139/141/51
f 141/142/52 140/143/52 145/144/52 146/145/52 142/146/52
f 137/138/53 138/137/53 141/142/53 142/146/53
f 144/139/54 137/138/54 142/146/54 146/145/54
f 139/141/55 143/140/55 145/144/55 140/143/55
f 138/137/56 139/141/56 140/143/56 141/142/56
f 143/140/57 144/139/57 146/145/57 145/144/57
o Connector.Right.Tube_Circle.011
v 0.866025 0.100000 -0.268834
v 0.866025 0.096194 -0.249699
v 0.866025 0.085355 -0.233478
v 0.866025 0.069134 -0.222640
v 0.866025 0.050000 -0.218834
v 0.866025 0.030866 -0.222640
v 0.866025 0.014645 -0.233478
v 0.866025 0.003806 -0.249699
v 0.866025 0.000000 -0.268834
v 0.866025 0.003806 -0.287968
v 0.866025 0.014645 -0.304189
v 0.866025 0.030866 -0.315028
v 0.866025 0.050000 -0.318834
v 0.866025 0.069134 -0.315028
v 0.866025 0.085355 -0.304189
v 0.866025 0.096194 -0.287968
v 0.448668 0.100000 -0.268834
v 0.448668 0.096194 -0.249699
v 0.448668 0.085355 -0.233478
v 0.448668 0.069134 -0.222640
v 0.448668 0.050000 -0.218834
v 0.448668 0.030866 -0.222640
v 0.448668 0.014645 -0.233478
v 0.448668 0.003806 -0.249699
v 0.448668 0.000000 -0.268834
v 0.448668 0.003806 -0.287968
v 0.448668 0.014645 -0.304189
v 0.448668 0.030866 -0.315028
v 0.448668 0.050000 -0.318834
v 0.448668 0.069134 -0.315028
v 0.448668 0.085355 -0.304189
v 0.448668 0.096194 -0.287968
vt 0.000000 0.000000
vt 0.000000 0.000000
vt 0.000000 0.000000
vt 0.000000 0.000000
vt 0.000000 0.000000
vt 0.000000 0.000000
vt 0.000000 0.000000
vt 0.000000 0.000000
vt 0.000000 0.000000
vt 0.000000 0.000000
vt 0.000000 0.000000
vt 0.000000 0.000000
vt 0.000000 0.000000
vt 0.000000 0.000000
vt 0.000000 0.000000
vt 0.000000 0.000000
vt 0.000000 0.000000
vt 0.000000 0.000000
vt 0.000000 0.000000
vt 0.000000 0.000000
vt 0.000000 0.000000
vt 0.000000 0.000000
vt 0.000000 0.000000
vt 0.000000 0.000000
vt 0.000000 0.000000
vt 0.000000 0.000000
vt 0.000000 0.000000
vt 0.000000 0.000000
vt 0.000000 0.000000
vt 0.000000 0.000000
vt 0.000000 0.000000
vt 0.000000 0.000000
vn -0.0000 -0.1951 -0.9808
vn 0.0000 -0.1951 0.9808
vn 0.0000 0.1951 -0.9808
vn 0.0000 -0.5556 0.8315
vn 0.0000 0.5556 -0.8315
vn 0.0000 -0.8315 0.5556
vn 0.0000 0.8315 -0.5556
vn -0.0000 -0.9808 0.1951
vn 0.0000 0.9808 0.1951
vn 0.0000 0.9808 -0.1951
vn -0.0000 -0.9808 -0.1951
vn 0.0000 0.8315 0.5556
vn -0.0000 -0.8315 -0.5556
vn 0.0000 0.5556 0.8315
vn -0.0000 -0.5556 -0.8315
vn 0.0000 0.1951 0.9808
vn -1.0000 -0.0000 0.0000
vn 1.0000 -0.0000 0.0000
usemtl ConnectorMetal1
s off
f 159/147/58 158/148/58 174/149/58 175/150/58
f 152/151/59 151/152/59 167/153/59 168/154/59
f 160/155/60 159/147/60 175/150/60 176/156/60
f 153/157/61 152/151/61 168/154/61 169/158/61
f 161/159/62 160/155/62 176/156/62 177/160/62
f 154/161/63 153/157/63 169/158/63 170/162/63
f 162/163/64 161/159/64 177/160/64 178/164/64
f 155/165/65 154/161/65 170/162/65 171/166/65
f 148/167/66 147/168/66 163/169/66 164/170/66
f 147/168/67 162/163/67 178/164/67 163/169/67
f 156/171/68 155/165/68 171/166/68 172/172/68
f 149/173/69 148/167/69 164/170/69 165/174/69
f 157/175/70 156/171/70 172/172/70 173/176/70
f 150/177/71 149/173/71 165/174/71 166/178/71
f 158/148/72 157/175/72 173/176/72 174/149/72
f 151/152/73 150/177/73 166/178/73 167/153/73
f 164/170/74 163/169/74 178/164/74 177/160/74 176/156/74 175/150/74 174/149/74 173/176/74 172/172/74 171/166/74 170/162/74 169/158/74 168/154/74 167/153/74 166/178/74 165/174/74
f 148/167/75 149/173/75 150/177/75 151/152/75 152/151/75 153/157/75 154/161/75 155/165/75 156/171/75 157/175/75 158/148/75 159/147/75 160/155/75 161/159/75 162/163/75 147/168/75
o Connector.Right.Supports_Circle.012
v 0.808469 0.053678 -0.268834
v 0.808469 0.026032 -0.214267
v 0.808469 0.000000 -0.191665
v 0.788807 0.000000 -0.191665
v 0.788807 0.026032 -0.214267
v 0.788807 0.053678 -0.268834
v 0.808469 0.000000 -0.346002
v 0.808469 0.026032 -0.323400
v 0.788807 0.000000 -0.346002
v 0.788807 0.026032 -0.323400
v 0.528789 0.053678 -0.268834
v 0.528789 0.026032 -0.214267
v 0.528789 0.000000 -0.191665
v 0.509126 0.000000 -0.191665
v 0.509126 0.026032 -0.214267
v 0.509126 0.053678 -0.268834
v 0.528789 0.000000 -0.346002
v 0.528789 0.026032 -0.323400
v 0.509126 0.000000 -0.346002
v 0.509126 0.026032 -0.323400
vt 0.000000 0.000000
vt 0.000000 0.000000
vt 0.000000 0.000000
vt 0.000000 0.000000
vt 0.000000 0.000000
vt 0.000000 0.000000
vt 0.000000 0.000000
vt 0.000000 0.000000
vt 0.000000 0.000000
vt 0.000000 0.000000
vt 0.000000 0.000000
vt 0.000000 0.000000
vt 0.000000 0.000000
vt 0.000000 0.000000
vt 0.000000 0.000000
vt 0.000000 0.000000
vt 0.000000 0.000000
vt 0.000000 0.000000
vt 0.000000 0.000000
vt 0.000000 0.000000
vn -1.0000 0.0000 0.0000
vn 1.0000 0.0000 0.0000
vn 0.0000 -0.8920 -0.4520
vn 0.0000 -0.8920 0.4520
vn 0.0000 1.0000 0.0000
vn 0.0000 -0.6556 -0.7551
vn 0.0000 -0.6556 0.7551
usemtl ConnectorMetal1
s off
f 180/179/76 179/180/76 186/181/76 185/182/76 181/183/76
f 183/184/77 182/185/77 187/186/77 188/187/77 184/188/77
f 179/180/78 180/179/78 183/184/78 184/188/78
f 186/181/79 179/180/79 184/188/79 188/187/79
f 181/183/80 185/182/80 187/186/80 182/185/80
f 180/179/81 181/183/81 182/185/81 183/184/81
f 185/182/82 186/181/82 188/187/82 187/186/82
f 190/189/76 189/190/76 196/191/76 195/192/76 191/193/76
f 193/194/77 192/195/77 197/196/77 198/197/77 194/198/77
f 189/190/78 190/189/78 193/194/78 194/198/78
f 196/191/79 189/190/79 194/198/79 198/197/79
f 191/193/80 195/192/80 197/196/80 192/195/80
f 190/189/81 191/193/81 192/195/81 193/194/81
f 195/192/82 196/191/82 198/197/82 197/196/82
o Circle.007_Circle.013
v -0.000000 0.002501 -0.782242
v -0.677442 0.002501 -0.391121
v -0.677442 0.002501 0.391121
v 0.000000 0.002501 0.782242
v 0.677442 0.002501 0.391121
v 0.677442 0.002501 -0.391121
v 0.000000 0.212286 -0.692005
v -0.599294 0.212286 -0.346002
v -0.599294 0.212286 0.346002
v 0.000000 0.212286 0.692005
v 0.599294 0.212286 0.346002
v 0.599294 0.212286 -0.346002
vt 0.000000 0.000000
vt 0.000000 0.000000
vt 0.000000 0.000000
vt 0.000000 0.000000
vt 0.000000 0.000000
vt 0.000000 0.000000
vt 0.000000 0.000000
vt 0.000000 0.000000
vt 0.000000 0.000000
vt 0.000000 0.000000
vt 0.000000 0.000000
vt 0.000000 0.000000
vn 0.0000 1.0000 0.0000
vn 0.0000 -1.0000 0.0000
vn -0.4685 -0.3491 0.8115
vn -0.4685 -0.3491 -0.8115
vn 0.9371 -0.3491 0.0000
vn -0.9371 -0.3491 0.0000
vn 0.4685 -0.3491 -0.8115
vn 0.4685 -0.3491 0.8115
usemtl Tmp
s off
f 199/199/83 200/200/83 204/201/83
f 200/200/83 201/202/83 204/201/83
f 204/201/83 201/202/83 203/203/83
f 202/204/83 203/203/83 201/202/83
f 205/205/84 210/206/84 206/207/84
f 206/207/84 210/206/84 207/208/84
f 210/206/84 209/209/84 207/208/84
f 208/210/84 207/208/84 209/209/84
f 199/199/85 204/201/85 210/206/85 205/205/85
f 203/203/86 202/204/86 208/210/86 209/209/86
f 201/202/87 200/200/87 206/207/87 207/208/87
f 204/201/88 203/203/88 209/209/88 210/206/88
f 202/204/89 201/202/89 207/208/89 208/210/89
f 200/200/90 199/199/90 205/205/90 206/207/90
o Circle.008_Shield
v -1.409537 0.000000 -2.187424
v -1.733490 0.000000 -1.968629
v -2.017437 0.000000 -1.674181
v -2.250466 0.000000 -1.315396
v -2.423623 0.000000 -0.906060
v -2.530252 0.000000 -0.461906
v -2.566256 0.000000 0.000000
v -2.530252 0.000000 0.461906
v -2.423623 0.000000 0.906061
v -2.250466 0.000000 1.315396
v -2.017437 0.000000 1.674182
v -1.733490 0.000000 1.968630
v -1.409537 0.000000 2.187424
v -1.409537 2.453758 -2.187424
v -1.733490 2.453758 -1.968629
v -2.017437 2.453758 -1.674181
v -2.250466 2.453758 -1.315396
v -2.423623 2.453758 -0.906060
v -2.530252 2.453758 -0.461906
v -2.566256 2.453758 0.000000
v -2.530252 2.453758 0.461906
v -2.423623 2.453758 0.906061
v -2.250466 2.453758 1.315396
v -2.017437 2.453758 1.674182
v -1.733490 2.453758 1.968630
v -1.409537 2.453758 2.187424
vt 0.000000 0.000000
vt 0.000000 0.000000
vt 0.000000 0.000000
vt 0.000000 0.000000
vt 0.000000 0.000000
vt 0.000000 0.000000
vt 0.000000 0.000000
vt 0.000000 0.000000
vt 0.000000 0.000000
vt 0.000000 0.000000
vt 0.000000 0.000000
vt 0.000000 0.000000
vt 0.000000 0.000000
vt 0.000000 0.000000
vt 0.000000 0.000000
vt 0.000000 0.000000
vt 0.000000 0.000000
vt 0.000000 0.000000
vt 0.000000 0.000000
vt 0.000000 0.000000
vt 0.000000 0.000000
vt 0.000000 0.000000
vt 0.000000 0.000000
vt 0.000000 0.000000
vt 0.000000 0.000000
vt 0.000000 0.000000
vn -0.9724 0.0000 -0.2334
vn -0.5597 0.0000 0.8287
vn -0.7198 0.0000 -0.6942
vn -0.9210 0.0000 0.3896
vn -0.9970 0.0000 -0.0777
vn -0.8386 0.0000 -0.5447
vn -0.8386 0.0000 0.5447
vn -0.9970 0.0000 0.0777
vn -0.9210 0.0000 -0.3896
vn -0.7198 0.0000 0.6942
vn -0.5597 0.0000 -0.8287
vn -0.9724 0.0000 0.2334
usemtl Shield
s off
f 216/211/91 229/212/91 228/213/91 215/214/91
f 223/215/92 236/216/92 235/217/92 222/218/92
f 213/219/93 226/220/93 225/221/93 212/222/93
f 220/223/94 233/224/94 232/225/94 219/226/94
f 217/227/95 230/228/95 229/212/95 216/211/95
f 214/229/96 227/230/96 226/220/96 213/219/96
f 221/231/97 234/232/97 233/224/97 220/223/97
f 218/233/98 231/234/98 230/228/98 217/227/98
f 215/214/99 228/213/99 227/230/99 214/229/99
f 222/218/100 235/217/100 234/232/100 221/231/100
f 212/222/101 225/221/101 224/235/101 211/236/101
f 219/226/102 232/225/102 231/234/102 218/233/102
o Circle.009_Circle.001
v 2.753964 0.000000 -2.657290
v 1.887939 0.000000 -2.157290
v 1.887939 0.000000 -1.157290
v 2.753964 0.000000 -0.657290
v 3.619990 0.000000 -1.157290
v 3.619990 0.000000 -2.157290
v 2.753964 0.126216 -2.657290
v 1.887939 0.126216 -2.157290
v 1.887939 0.126216 -1.157290
v 2.753964 0.126216 -0.657290
v 3.619990 0.126216 -1.157290
v 3.619990 0.126216 -2.157290
vt 1.000000 0.750000
vt 0.500000 1.000000
vt 1.000000 0.250000
vt 0.000000 0.750000
vt 0.500000 0.000000
vt 0.000000 0.250000
vt 0.000000 0.000000
vt 0.000000 0.000000
vt 0.000000 0.000000
vt 0.000000 0.000000
vt 0.000000 0.000000
vt 0.000000 0.000000
vt 0.000000 0.000000
vt 0.000000 0.000000
vt 0.000000 0.000000
vt 0.000000 0.000000
vt 0.000000 0.000000
vt 0.000000 0.000000
vn 0.0000 1.0000 0.0000
vn 1.0000 0.0000 0.0000
vn -0.5000 0.0000 0.8660
vn -0.5000 0.0000 -0.8660
vn 0.5000 0.0000 -0.8660
vn 0.5000 0.0000 0.8660
vn -1.0000 0.0000 0.0000
usemtl Material
s off
f 243/237/103 244/238/103 248/239/103
f 244/238/103 245/240/103 248/239/103
f 248/239/103 245/240/103 247/241/103
f 246/242/103 247/241/103 245/240/103
f 241/243/104 242/244/104 248/245/104 247/246/104
f 239/247/105 240/248/105 246/249/105 245/250/105
f 237/251/106 238/252/106 244/253/106 243/254/106
f 242/244/107 237/251/107 243/254/107 248/245/107
f 240/248/108 241/243/108 247/246/108 246/249/108
f 238/252/109 239/247/109 245/250/109 244/253/109
