# Blender v2.80 (sub 75) OBJ File: 'lifesupportblend.blend'
# www.blender.org
mtllib lifesupport.mtl
o Cube
v -0.535346 0.065616 0.535346
v -0.535346 0.215923 0.535346
v -0.535346 0.065616 -0.535346
v -0.535346 0.215923 -0.535346
v 0.535346 0.065616 0.535346
v 0.535346 0.215923 0.535346
v 0.535346 0.065616 -0.535346
v 0.535346 0.215923 -0.535346
vt 0.375000 0.000000
vt 0.625000 0.000000
vt 0.625000 0.250000
vt 0.375000 0.250000
vt 0.625000 0.500000
vt 0.375000 0.500000
vt 0.625000 0.750000
vt 0.375000 0.750000
vt 0.625000 1.000000
vt 0.375000 1.000000
vt 0.875000 0.500000
vt 0.875000 0.750000
vn -1.0000 0.0000 0.0000
vn 0.0000 0.0000 -1.0000
vn 1.0000 0.0000 0.0000
vn 0.0000 0.0000 1.0000
vn 0.0000 1.0000 0.0000
usemtl None
s off
f 1/1/1 2/2/1 4/3/1 3/4/1
f 3/4/2 4/3/2 8/5/2 7/6/2
f 7/6/3 8/5/3 6/7/3 5/8/3
f 5/8/4 6/7/4 2/9/4 1/10/4
f 8/5/5 4/11/5 2/12/5 6/7/5
o Plane
v -0.424070 0.216680 0.107734
v -0.148570 0.216680 0.107734
v -0.424070 0.216680 -0.099640
v -0.148570 0.216680 -0.099640
v -0.424070 0.250125 -0.099640
v -0.424070 0.250125 0.107734
v -0.148570 0.250125 0.107734
v -0.148570 0.250125 -0.099640
vt 0.000000 0.000000
vt 0.000000 1.000000
vt 1.000000 1.000000
vt 1.000000 0.000000
vt 0.000000 0.000000
vt 1.000000 0.000000
vt 1.000000 1.000000
vt 0.000000 1.000000
vn 0.0000 -1.0000 0.0000
vn 0.0000 1.0000 0.0000
vn 1.0000 0.0000 0.0000
vn -1.0000 0.0000 0.0000
vn 0.0000 0.0000 -1.0000
vn 0.0000 0.0000 1.0000
usemtl None
s off
f 9/13/6 11/14/6 12/15/6 10/16/6
f 14/17/7 15/18/7 16/19/7 13/20/7
f 10/16/8 12/15/8 16/19/8 15/18/8
f 11/14/9 9/13/9 14/17/9 13/20/9
f 12/15/10 11/14/10 13/20/10 16/19/10
f 9/13/11 10/16/11 15/18/11 14/17/11
o Plane.001
v 0.122243 0.215012 0.446549
v 0.122243 0.215012 0.132795
v -0.097427 0.215012 0.446549
v -0.097427 0.215012 0.132795
v -0.097427 0.248458 0.446549
v 0.122243 0.248458 0.446549
v 0.122243 0.248458 0.132795
v -0.097427 0.248458 0.132795
vt 0.000000 0.000000
vt 0.000000 1.000000
vt 1.000000 1.000000
vt 1.000000 0.000000
vt 0.000000 0.000000
vt 1.000000 0.000000
vt 1.000000 1.000000
vt 0.000000 1.000000
vn 0.0000 -1.0000 0.0000
vn 0.0000 1.0000 0.0000
vn 1.0000 0.0000 -0.0000
vn 0.0000 0.0000 -1.0000
vn 0.0000 0.0000 1.0000
vn -1.0000 0.0000 0.0000
usemtl None
s off
f 17/21/12 19/22/12 20/23/12 18/24/12
f 22/25/13 23/26/13 24/27/13 21/28/13
f 17/21/14 18/24/14 23/26/14 22/25/14
f 18/24/15 20/23/15 24/27/15 23/26/15
f 19/22/16 17/21/16 22/25/16 21/28/16
f 20/23/17 19/22/17 21/28/17 24/27/17
o Plane.002
v 0.124951 0.215012 -0.138207
v 0.124951 0.215012 -0.451962
v -0.094719 0.215012 -0.138207
v -0.094719 0.215012 -0.451962
v -0.094719 0.248458 -0.138207
v 0.124951 0.248458 -0.138207
v 0.124951 0.248458 -0.451962
v -0.094719 0.248458 -0.451962
vt 0.000000 0.000000
vt 0.000000 1.000000
vt 1.000000 1.000000
vt 1.000000 0.000000
vt 0.000000 0.000000
vt 1.000000 0.000000
vt 1.000000 1.000000
vt 0.000000 1.000000
vn 0.0000 -1.0000 0.0000
vn 0.0000 1.0000 0.0000
vn 0.0000 0.0000 -1.0000
vn 0.0000 0.0000 1.0000
vn -1.0000 0.0000 0.0000
vn 1.0000 0.0000 -0.0000
usemtl None
s off
f 25/29/18 27/30/18 28/31/18 26/32/18
f 30/33/19 31/34/19 32/35/19 29/36/19
f 26/32/20 28/31/20 32/35/20 31/34/20
f 27/30/21 25/29/21 30/33/21 29/36/21
f 28/31/22 27/30/22 29/36/22 32/35/22
f 25/29/23 26/32/23 31/34/23 30/33/23
o Plane.003
v 0.156769 0.214754 0.108169
v 0.432270 0.214754 0.108169
v 0.156769 0.214754 -0.099204
v 0.432270 0.214754 -0.099204
v 0.156769 0.248199 -0.099204
v 0.156769 0.248199 0.108169
v 0.432270 0.248199 0.108169
v 0.432270 0.248199 -0.099204
vt 0.000000 0.000000
vt 0.000000 1.000000
vt 1.000000 1.000000
vt 1.000000 0.000000
vt 0.000000 0.000000
vt 1.000000 0.000000
vt 1.000000 1.000000
vt 0.000000 1.000000
vn 0.0000 -1.0000 0.0000
vn 0.0000 1.0000 0.0000
vn 0.0000 0.0000 1.0000
vn 1.0000 0.0000 0.0000
vn -1.0000 0.0000 0.0000
vn 0.0000 0.0000 -1.0000
usemtl None
s off
f 33/37/24 35/38/24 36/39/24 34/40/24
f 38/41/25 39/42/25 40/43/25 37/44/25
f 33/37/26 34/40/26 39/42/26 38/41/26
f 34/40/27 36/39/27 40/43/27 39/42/27
f 35/38/28 33/37/28 38/41/28 37/44/28
f 36/39/29 35/38/29 37/44/29 40/43/29
o Cone
v 0.000000 0.221238 -0.077718
v 0.015162 0.221238 -0.076225
v 0.029741 0.221238 -0.071802
v 0.043178 0.221238 -0.064620
v 0.054955 0.221238 -0.054955
v 0.064620 0.221238 -0.043178
v 0.071802 0.221238 -0.029742
v 0.076224 0.221238 -0.015162
v 0.077718 0.221238 -0.000000
v 0.076224 0.221238 0.015162
v 0.071802 0.221238 0.029741
v 0.064620 0.221238 0.043177
v 0.054955 0.221238 0.054954
v 0.043178 0.221238 0.064620
v 0.029741 0.221238 0.071801
v 0.015162 0.221238 0.076224
v 0.000000 0.221238 0.077717
v -0.015162 0.221238 0.076224
v -0.029741 0.221238 0.071801
v -0.043178 0.221238 0.064620
v -0.054955 0.221238 0.054954
v -0.064620 0.221238 0.043177
v -0.071802 0.221238 0.029741
v -0.076224 0.221238 0.015162
v -0.077718 0.221238 -0.000000
v -0.076224 0.221238 -0.015162
v -0.071802 0.221238 -0.029742
v -0.064620 0.221238 -0.043178
v -0.054955 0.221238 -0.054955
v -0.043177 0.221238 -0.064620
v -0.029741 0.221238 -0.071802
v -0.015162 0.221238 -0.076225
v 0.000000 0.261101 -0.077718
v 0.015162 0.261101 -0.076225
v 0.029741 0.261101 -0.071802
v 0.043178 0.261101 -0.064620
v 0.054955 0.261101 -0.054955
v 0.064620 0.261101 -0.043178
v 0.071802 0.261101 -0.029742
v 0.076224 0.261101 -0.015162
v 0.077718 0.261101 -0.000000
v 0.076224 0.261101 0.015162
v 0.071802 0.261101 0.029741
v 0.064620 0.261101 0.043177
v 0.054955 0.261101 0.054954
v 0.043178 0.261101 0.064620
v 0.029741 0.261101 0.071801
v 0.015162 0.261101 0.076224
v 0.000000 0.261101 0.077717
v -0.015162 0.261101 0.076224
v -0.029741 0.261101 0.071801
v -0.043178 0.261101 0.064620
v -0.054955 0.261101 0.054954
v -0.064620 0.261101 0.043177
v -0.071802 0.261101 0.029741
v -0.076224 0.261101 0.015162
v -0.077718 0.261101 -0.000000
v -0.076224 0.261101 -0.015162
v -0.071802 0.261101 -0.029742
v -0.064620 0.261101 -0.043178
v -0.054955 0.261101 -0.054955
v -0.043177 0.261101 -0.064620
v -0.029741 0.261101 -0.071802
v -0.015162 0.261101 -0.076225
vt 0.750000 0.490000
vt 0.703179 0.485389
vt 0.658156 0.471731
vt 0.616663 0.449553
vt 0.580295 0.419706
vt 0.550447 0.383337
vt 0.528269 0.341844
vt 0.514612 0.296822
vt 0.510000 0.250000
vt 0.514611 0.203179
vt 0.528269 0.158156
vt 0.550447 0.116663
vt 0.580294 0.080294
vt 0.616663 0.050447
vt 0.658156 0.028269
vt 0.703178 0.014612
vt 0.750000 0.010000
vt 0.796822 0.014612
vt 0.841844 0.028269
vt 0.883337 0.050447
vt 0.919706 0.080294
vt 0.949553 0.116663
vt 0.971731 0.158156
vt 0.985388 0.203178
vt 0.990000 0.250000
vt 0.985388 0.296822
vt 0.971731 0.341844
vt 0.949553 0.383337
vt 0.919706 0.419706
vt 0.883337 0.449553
vt 0.841844 0.471731
vt 0.796822 0.485388
vt 0.750000 0.490000
vt 0.796822 0.485388
vt 0.841844 0.471731
vt 0.883337 0.449553
vt 0.919706 0.419706
vt 0.949553 0.383337
vt 0.971731 0.341844
vt 0.985388 0.296822
vt 0.990000 0.250000
vt 0.985388 0.203178
vt 0.971731 0.158156
vt 0.949553 0.116663
vt 0.919706 0.080294
vt 0.883337 0.050447
vt 0.841844 0.028269
vt 0.796822 0.014612
vt 0.750000 0.010000
vt 0.703178 0.014612
vt 0.658156 0.028269
vt 0.616663 0.050447
vt 0.580294 0.080294
vt 0.550447 0.116663
vt 0.528269 0.158156
vt 0.514611 0.203179
vt 0.510000 0.250000
vt 0.514612 0.296822
vt 0.528269 0.341844
vt 0.550447 0.383337
vt 0.580295 0.419706
vt 0.616663 0.449553
vt 0.658156 0.471731
vt 0.703179 0.485389
vn 0.0000 1.0000 0.0000
vn 0.0000 -1.0000 0.0000
vn -0.2903 0.0000 -0.9569
vn -0.2903 0.0000 0.9569
vn 0.6344 -0.0000 0.7730
vn -0.0980 0.0000 -0.9952
vn -0.4714 0.0000 0.8819
vn 0.4714 -0.0000 0.8819
vn 0.0980 -0.0000 -0.9952
vn -0.6344 0.0000 0.7730
vn 0.2903 -0.0000 0.9569
vn 0.2903 -0.0000 -0.9569
vn -0.7730 0.0000 0.6344
vn 0.0980 -0.0000 0.9952
vn 0.4714 -0.0000 -0.8819
vn -0.8819 0.0000 0.4714
vn 0.6344 -0.0000 -0.7730
vn -0.9569 0.0000 0.2903
vn 0.7730 -0.0000 -0.6344
vn -0.9952 0.0000 0.0980
vn 0.8819 -0.0000 -0.4714
vn -0.9952 0.0000 -0.0980
vn 0.9569 -0.0000 -0.2903
vn -0.9569 0.0000 -0.2903
vn 0.9952 -0.0000 -0.0980
vn -0.8819 0.0000 -0.4714
vn 0.9952 -0.0000 0.0980
vn -0.7730 0.0000 -0.6344
vn 0.9569 -0.0000 0.2903
vn -0.6344 0.0000 -0.7730
vn 0.8819 -0.0000 0.4714
vn -0.4714 0.0000 -0.8819
vn -0.0980 0.0000 0.9952
vn 0.7730 -0.0000 0.6344
usemtl None
s off
f 41/45/30 72/46/30 71/47/30 70/48/30 69/49/30 68/50/30 67/51/30 66/52/30 65/53/30 64/54/30 63/55/30 62/56/30 61/57/30 60/58/30 59/59/30 58/60/30 57/61/30 56/62/30 55/63/30 54/64/30 53/65/30 52/66/30 51/67/30 50/68/30 49/69/30 48/70/30 47/71/30 46/72/30 45/73/30 44/74/30 43/75/30 42/76/30
f 73/77/31 74/78/31 75/79/31 76/80/31 77/81/31 78/82/31 79/83/31 80/84/31 81/85/31 82/86/31 83/87/31 84/88/31 85/89/31 86/90/31 87/91/31 88/92/31 89/93/31 90/94/31 91/95/31 92/96/31 93/97/31 94/98/31 95/99/31 96/100/31 97/101/31 98/102/31 99/103/31 100/104/31 101/105/31 102/106/31 103/107/31 104/108/31
f 55/63/32 56/62/32 88/92/32 87/91/32
f 42/76/33 43/75/33 75/79/33 74/78/33
f 69/49/34 70/48/34 102/106/34 101/105/34
f 56/62/35 57/61/35 89/93/35 88/92/35
f 43/75/36 44/74/36 76/80/36 75/79/36
f 70/48/37 71/47/37 103/107/37 102/106/37
f 57/61/38 58/60/38 90/94/38 89/93/38
f 44/74/39 45/73/39 77/81/39 76/80/39
f 71/47/40 72/46/40 104/108/40 103/107/40
f 58/60/41 59/59/41 91/95/41 90/94/41
f 45/73/42 46/72/42 78/82/42 77/81/42
f 72/46/43 41/45/43 73/77/43 104/108/43
f 59/59/44 60/58/44 92/96/44 91/95/44
f 46/72/45 47/71/45 79/83/45 78/82/45
f 60/58/46 61/57/46 93/97/46 92/96/46
f 47/71/47 48/70/47 80/84/47 79/83/47
f 61/57/48 62/56/48 94/98/48 93/97/48
f 48/70/49 49/69/49 81/85/49 80/84/49
f 62/56/50 63/55/50 95/99/50 94/98/50
f 49/69/51 50/68/51 82/86/51 81/85/51
f 63/55/52 64/54/52 96/100/52 95/99/52
f 50/68/53 51/67/53 83/87/53 82/86/53
f 64/54/54 65/53/54 97/101/54 96/100/54
f 51/67/55 52/66/55 84/88/55 83/87/55
f 65/53/56 66/52/56 98/102/56 97/101/56
f 52/66/57 53/65/57 85/89/57 84/88/57
f 66/52/58 67/51/58 99/103/58 98/102/58
f 53/65/59 54/64/59 86/90/59 85/89/59
f 67/51/60 68/50/60 100/104/60 99/103/60
f 54/64/61 55/63/61 87/91/61 86/90/61
f 41/45/62 42/76/62 74/78/62 73/77/62
f 68/50/63 69/49/63 101/105/63 100/104/63
