# Blender v2.80 (sub 75) OBJ File: 'Rotary.blend'
# www.blender.org
mtllib Rotary.mtl
o Cylinder
v 0.429927 0.517067 0.435032
v -0.435032 0.517067 0.429927
v 0.430269 0.300824 0.377090
v -0.434690 0.300824 0.371986
v 0.431204 0.142522 0.218792
v -0.433756 0.142522 0.213688
v 0.432480 0.084580 0.002552
v -0.432480 0.084580 -0.002552
v 0.433756 0.142522 -0.213688
v -0.431203 0.142522 -0.218792
v 0.434690 0.300824 -0.371986
v -0.430269 0.300824 -0.377090
v 0.435032 0.517067 -0.429927
v -0.429927 0.517067 -0.435032
v 0.434690 0.733311 -0.371986
v -0.430269 0.733311 -0.377091
v 0.433756 0.891612 -0.213688
v -0.431204 0.891612 -0.218792
v 0.432480 0.949554 0.002552
v -0.432480 0.949554 -0.002552
v 0.431203 0.891612 0.218792
v -0.433756 0.891612 0.213687
v 0.430269 0.733311 0.377090
v -0.434690 0.733311 0.371986
vt 1.000000 0.500000
vt 1.000000 1.000000
vt 0.916667 1.000000
vt 0.916667 0.500000
vt 0.833333 1.000000
vt 0.833333 0.500000
vt 0.750000 1.000000
vt 0.750000 0.500000
vt 0.666667 1.000000
vt 0.666667 0.500000
vt 0.583333 1.000000
vt 0.583333 0.500000
vt 0.500000 1.000000
vt 0.500000 0.500000
vt 0.416667 1.000000
vt 0.416667 0.500000
vt 0.333333 1.000000
vt 0.333333 0.500000
vt 0.250000 1.000000
vt 0.250000 0.500000
vt 0.166667 1.000000
vt 0.166667 0.500000
vt 0.370000 0.457846
vt 0.250000 0.490000
vt 0.130000 0.457846
vt 0.042154 0.370000
vt 0.010000 0.250000
vt 0.042154 0.130000
vt 0.130000 0.042154
vt 0.250000 0.010000
vt 0.370000 0.042154
vt 0.457846 0.130000
vt 0.490000 0.250000
vt 0.457846 0.370000
vt 0.083333 1.000000
vt 0.083333 0.500000
vt 0.000000 1.000000
vt 0.000000 0.500000
vt 0.750000 0.490000
vt 0.870000 0.457846
vt 0.957846 0.370000
vt 0.990000 0.250000
vt 0.957846 0.130000
vt 0.870000 0.042154
vt 0.750000 0.010000
vt 0.630000 0.042154
vt 0.542154 0.130000
vt 0.510000 0.250000
vt 0.542154 0.370000
vt 0.630000 0.457846
vn -0.0057 -0.2588 0.9659
vn -0.0042 -0.7071 0.7071
vn -0.0015 -0.9659 0.2588
vn 0.0015 -0.9659 -0.2588
vn 0.0042 -0.7071 -0.7071
vn 0.0057 -0.2588 -0.9659
vn 0.0057 0.2588 -0.9659
vn 0.0042 0.7071 -0.7071
vn 0.0015 0.9659 -0.2588
vn -0.0015 0.9659 0.2588
vn -1.0000 -0.0000 -0.0059
vn -0.0042 0.7071 0.7071
vn -0.0057 0.2588 0.9659
vn 1.0000 0.0000 0.0059
usemtl None
s off
f 1/1/1 2/2/1 4/3/1 3/4/1
f 3/4/2 4/3/2 6/5/2 5/6/2
f 5/6/3 6/5/3 8/7/3 7/8/3
f 7/8/4 8/7/4 10/9/4 9/10/4
f 9/10/5 10/9/5 12/11/5 11/12/5
f 11/12/6 12/11/6 14/13/6 13/14/6
f 13/14/7 14/13/7 16/15/7 15/16/7
f 15/16/8 16/15/8 18/17/8 17/18/8
f 17/18/9 18/17/9 20/19/9 19/20/9
f 19/20/10 20/19/10 22/21/10 21/22/10
f 4/23/11 2/24/11 24/25/11 22/26/11 20/27/11 18/28/11 16/29/11 14/30/11 12/31/11 10/32/11 8/33/11 6/34/11
f 21/22/12 22/21/12 24/35/12 23/36/12
f 23/36/13 24/35/13 2/37/13 1/38/13
f 1/39/14 3/40/14 5/41/14 7/42/14 9/43/14 11/44/14 13/45/14 15/46/14 17/47/14 19/48/14 21/49/14 23/50/14
o Cube.001
v 0.429823 0.038192 0.202877
v 0.429823 0.442055 0.202877
v 0.429823 0.038192 -0.200986
v 0.429823 0.442055 -0.200986
v 0.510976 0.038192 0.202877
v 0.510976 0.442055 0.202877
v 0.510976 0.038192 -0.200986
v 0.510976 0.442055 -0.200986
vt 0.375000 0.000000
vt 0.625000 0.000000
vt 0.625000 0.250000
vt 0.375000 0.250000
vt 0.625000 0.500000
vt 0.375000 0.500000
vt 0.625000 0.750000
vt 0.375000 0.750000
vt 0.625000 1.000000
vt 0.375000 1.000000
vt 0.125000 0.500000
vt 0.125000 0.750000
vt 0.875000 0.500000
vt 0.875000 0.750000
vn -1.0000 0.0000 0.0000
vn 0.0000 0.0000 -1.0000
vn 1.0000 0.0000 0.0000
vn 0.0000 0.0000 1.0000
vn 0.0000 -1.0000 0.0000
vn 0.0000 1.0000 0.0000
usemtl None
s off
f 25/51/15 26/52/15 28/53/15 27/54/15
f 27/54/16 28/53/16 32/55/16 31/56/16
f 31/56/17 32/55/17 30/57/17 29/58/17
f 29/58/18 30/57/18 26/59/18 25/60/18
f 27/61/19 31/56/19 29/58/19 25/62/19
f 32/55/20 28/63/20 26/64/20 30/57/20
