# Blender v2.80 (sub 75) OBJ File: 'symbols.blend'
# www.blender.org
mtllib symbol_b_3.mtl
o UpgradeB2_Circle.001
v 0.000000 -1.096193 -1.000000
v -0.382683 -1.096193 -0.923880
v -0.707107 -1.096193 -0.707107
v -0.923880 -1.096193 -0.382683
v -1.000000 -1.096193 0.000000
v -0.923880 -1.096193 0.382684
v -0.707107 -1.096193 0.707107
v -0.382684 -1.096193 0.923880
v -0.000000 -1.096193 1.000000
v 0.382683 -1.096193 0.923880
v 0.707107 -1.096193 0.707107
v 0.923880 -1.096193 0.382684
v 1.000000 -1.096193 -0.000000
v 0.923879 -1.096193 -0.382684
v 0.707107 -1.096193 -0.707107
v 0.382683 -1.096193 -0.923880
v 0.000000 -0.942224 -0.609616
v -0.233290 -1.091047 -0.563211
v -0.431063 -1.091047 -0.431063
v -0.563211 -1.091047 -0.233290
v -0.609616 -1.091047 0.000000
v -0.563211 -1.091047 0.233290
v -0.431063 -1.091047 0.431063
v -0.233290 -1.091047 0.563211
v -0.000000 -0.942224 0.609616
v 0.233290 -0.942224 0.563211
v 0.431063 -0.942224 0.431063
v 0.563211 -0.942224 0.233290
v 0.609616 -0.942224 -0.000000
v 0.563211 -0.942224 -0.233290
v 0.431063 -0.942224 -0.431063
v 0.233289 -0.942224 -0.563211
v 0.000000 -0.736989 -0.609616
v -0.233290 -0.736989 -0.563211
v -0.431063 -0.736989 -0.431063
v -0.563211 -0.764166 -0.233290
v -0.609616 -0.764166 0.000000
v -0.563211 -0.764166 0.233290
v -0.431063 -0.736989 0.431063
v -0.233290 -0.736989 0.563211
v -0.000000 -0.736989 0.609616
v 0.233290 -0.736989 0.563211
v 0.431063 -0.736989 0.431063
v 0.563211 -0.736989 0.233290
v 0.609616 -0.736989 -0.000000
v 0.563211 -0.736989 -0.233290
v 0.431063 -0.736989 -0.431063
v 0.233289 -0.736989 -0.563211
v 0.000000 -0.682388 -0.321212
v -0.122922 -0.677201 -0.296761
v -0.227131 -0.677201 -0.227131
v -0.296761 -0.677201 -0.122923
v -0.321212 -0.677201 0.000000
v -0.296761 -0.677201 0.122923
v -0.227131 -0.677201 0.227131
v -0.122922 -0.677201 0.296761
v 0.000000 -0.682388 0.321212
v 0.122923 -0.682388 0.296761
v 0.227131 -0.682388 0.227131
v 0.296762 -0.682388 0.122923
v 0.321212 -0.682388 -0.000000
v 0.296762 -0.682388 -0.122923
v 0.227131 -0.682388 -0.227131
v 0.122923 -0.682388 -0.296761
v 0.000000 -0.297762 -0.321212
v -0.122922 -0.297762 -0.296761
v -0.227131 -0.297762 -0.227131
v -0.296761 -0.297762 -0.122923
v -0.321212 -0.297762 0.000000
v -0.296761 -0.297762 0.122923
v -0.227131 -0.297762 0.227131
v -0.122922 -0.297762 0.296761
v 0.000000 -0.297762 0.321212
v 0.122923 -0.297762 0.296761
v 0.227131 -0.297762 0.227131
v 0.296762 -0.297762 0.122923
v 0.321212 -0.297762 -0.000000
v 0.296762 -0.297762 -0.122923
v 0.227131 -0.297762 -0.227131
v 0.122923 -0.297762 -0.296761
v 0.000000 -0.143155 -0.218770
v -0.083719 -0.143155 -0.202117
v -0.154693 -0.143155 -0.154694
v -0.202116 -0.143155 -0.083720
v -0.218769 -0.143155 0.000000
v -0.202116 -0.143155 0.083720
v -0.154693 -0.143155 0.154694
v -0.083719 -0.143155 0.202117
v 0.000000 -0.143155 0.218770
v 0.083720 -0.143155 0.202117
v 0.154694 -0.143155 0.154694
v 0.202117 -0.143155 0.083720
v 0.218770 -0.143155 -0.000000
v 0.202117 -0.143155 -0.083720
v 0.154694 -0.143155 -0.154694
v 0.083720 -0.143155 -0.202117
v 0.000000 0.040119 -0.000000
v 0.000000 1.096193 -1.000000
v -0.382683 1.096193 -0.923880
v -0.707107 1.096193 -0.707107
v -0.923880 1.096193 -0.382683
v -1.000000 1.096193 0.000000
v -0.923880 1.096193 0.382684
v -0.707107 1.096193 0.707107
v -0.382684 1.096193 0.923880
v -0.000000 1.096193 1.000000
v 0.382683 1.096193 0.923880
v 0.707107 1.096193 0.707107
v 0.923880 1.096193 0.382684
v 1.000000 1.096193 -0.000000
v 0.923879 1.096193 -0.382684
v 0.707107 1.096193 -0.707107
v 0.382683 1.096193 -0.923880
v 0.000000 0.942224 -0.609616
v -0.233290 1.091047 -0.563211
v -0.431063 1.091047 -0.431063
v -0.563211 1.091047 -0.233290
v -0.609616 1.091047 0.000000
v -0.563211 1.091047 0.233290
v -0.431063 1.091047 0.431063
v -0.233290 1.091047 0.563211
v -0.000000 0.942224 0.609616
v 0.233290 0.942224 0.563211
v 0.431063 0.942224 0.431063
v 0.563211 0.942224 0.233290
v 0.609616 0.942224 -0.000000
v 0.563211 0.942224 -0.233290
v 0.431063 0.942224 -0.431063
v 0.233289 0.942224 -0.563211
v 0.000000 0.736989 -0.609616
v -0.233290 0.736989 -0.563211
v -0.431063 0.736989 -0.431063
v -0.563211 0.764166 -0.233290
v -0.609616 0.764166 0.000000
v -0.563211 0.764166 0.233290
v -0.431063 0.736989 0.431063
v -0.233290 0.736989 0.563211
v -0.000000 0.736989 0.609616
v 0.233290 0.736989 0.563211
v 0.431063 0.736989 0.431063
v 0.563211 0.736989 0.233290
v 0.609616 0.736989 -0.000000
v 0.563211 0.736989 -0.233290
v 0.431063 0.736989 -0.431063
v 0.233289 0.736989 -0.563211
v 0.000000 0.682388 -0.321212
v -0.122922 0.677201 -0.296761
v -0.227131 0.677201 -0.227131
v -0.296761 0.677201 -0.122923
v -0.321212 0.677201 0.000000
v -0.296761 0.677201 0.122923
v -0.227131 0.677201 0.227131
v -0.122922 0.677201 0.296761
v 0.000000 0.682388 0.321212
v 0.122923 0.682388 0.296761
v 0.227131 0.682388 0.227131
v 0.296762 0.682388 0.122923
v 0.321212 0.682388 -0.000000
v 0.296762 0.682388 -0.122923
v 0.227131 0.682388 -0.227131
v 0.122923 0.682388 -0.296761
v 0.000000 0.297762 -0.321212
v -0.122922 0.297762 -0.296761
v -0.227131 0.297762 -0.227131
v -0.296761 0.297762 -0.122923
v -0.321212 0.297762 0.000000
v -0.296761 0.297762 0.122923
v -0.227131 0.297762 0.227131
v -0.122922 0.297762 0.296761
v 0.000000 0.297762 0.321212
v 0.122923 0.297762 0.296761
v 0.227131 0.297762 0.227131
v 0.296762 0.297762 0.122923
v 0.321212 0.297762 -0.000000
v 0.296762 0.297762 -0.122923
v 0.227131 0.297762 -0.227131
v 0.122923 0.297762 -0.296761
v 0.000000 0.143155 -0.218770
v -0.083719 0.143155 -0.202117
v -0.154693 0.143155 -0.154694
v -0.202116 0.143155 -0.083720
v -0.218769 0.143155 0.000000
v -0.202116 0.143155 0.083720
v -0.154693 0.143155 0.154694
v -0.083719 0.143155 0.202117
v 0.000000 0.143155 0.218770
v 0.083720 0.143155 0.202117
v 0.154694 0.143155 0.154694
v 0.202117 0.143155 0.083720
v 0.218770 0.143155 -0.000000
v 0.202117 0.143155 -0.083720
v 0.154694 0.143155 -0.154694
v 0.083720 0.143155 -0.202117
v 0.000000 -0.040119 -0.000000
vt 0.000000 0.000000
vt 0.000000 0.000000
vt 0.000000 0.000000
vt 0.000000 0.000000
vt 0.000000 0.000000
vt 0.000000 0.000000
vt 0.000000 0.000000
vt 0.000000 0.000000
vt 0.000000 0.000000
vt 0.000000 0.000000
vt 0.000000 0.000000
vt 0.000000 0.000000
vt 0.000000 0.000000
vt 0.000000 0.000000
vt 0.000000 0.000000
vt 0.000000 0.000000
vt 0.000000 0.000000
vt 0.000000 0.000000
vt 0.000000 0.000000
vt 0.000000 0.000000
vt 0.000000 0.000000
vt 0.000000 0.000000
vt 0.000000 0.000000
vt 0.000000 0.000000
vt 0.000000 0.000000
vt 0.000000 0.000000
vt 0.000000 0.000000
vt 0.000000 0.000000
vt 0.000000 0.000000
vt 0.000000 0.000000
vt 0.000000 0.000000
vt 0.000000 0.000000
vt 0.000000 0.000000
vt 0.000000 0.000000
vt 0.000000 0.000000
vt 0.000000 0.000000
vt 0.000000 0.000000
vt 0.000000 0.000000
vt 0.000000 0.000000
vt 0.000000 0.000000
vt 0.000000 0.000000
vt 0.000000 0.000000
vt 0.000000 0.000000
vt 0.000000 0.000000
vt 0.000000 0.000000
vt 0.000000 0.000000
vt 0.000000 0.000000
vt 0.000000 0.000000
vt 0.000000 0.000000
vt 0.000000 0.000000
vt 0.000000 0.000000
vt 0.000000 0.000000
vt 0.000000 0.000000
vt 0.000000 0.000000
vt 0.000000 0.000000
vt 0.000000 0.000000
vt 0.000000 0.000000
vt 0.000000 0.000000
vt 0.000000 0.000000
vt 0.000000 0.000000
vt 0.000000 0.000000
vt 0.000000 0.000000
vt 0.000000 0.000000
vt 0.000000 0.000000
vt 0.000000 0.000000
vt 0.000000 0.000000
vt 0.000000 0.000000
vt 0.000000 0.000000
vt 0.000000 0.000000
vt 0.000000 0.000000
vt 0.000000 0.000000
vt 0.000000 0.000000
vt 0.000000 0.000000
vt 0.000000 0.000000
vt 0.000000 0.000000
vt 0.000000 0.000000
vt 0.000000 0.000000
vt 0.000000 0.000000
vt 0.000000 0.000000
vt 0.000000 0.000000
vt 0.000000 0.000000
vt 0.000000 0.000000
vt 0.000000 0.000000
vt 0.000000 0.000000
vt 0.000000 0.000000
vt 0.000000 0.000000
vt 0.000000 0.000000
vt 0.000000 0.000000
vt 0.000000 0.000000
vt 0.000000 0.000000
vt 0.000000 0.000000
vt 0.000000 0.000000
vt 0.000000 0.000000
vt 0.000000 0.000000
vt 0.000000 0.000000
vt 0.000000 0.000000
vt 0.000000 0.000000
vt 0.000000 0.000000
vt 0.000000 0.000000
vt 0.000000 0.000000
vt 0.000000 0.000000
vt 0.000000 0.000000
vt 0.000000 0.000000
vt 0.000000 0.000000
vt 0.000000 0.000000
vt 0.000000 0.000000
vt 0.000000 0.000000
vt 0.000000 0.000000
vt 0.000000 0.000000
vt 0.000000 0.000000
vt 0.000000 0.000000
vt 0.000000 0.000000
vt 0.000000 0.000000
vt 0.000000 0.000000
vt 0.000000 0.000000
vt 0.000000 0.000000
vt 0.000000 0.000000
vt 0.000000 0.000000
vt 0.000000 0.000000
vt 0.000000 0.000000
vt 0.000000 0.000000
vt 0.000000 0.000000
vt 0.000000 0.000000
vt 0.000000 0.000000
vt 0.000000 0.000000
vt 0.000000 0.000000
vt 0.000000 0.000000
vt 0.000000 0.000000
vt 0.000000 0.000000
vt 0.000000 0.000000
vt 0.000000 0.000000
vt 0.000000 0.000000
vt 0.000000 0.000000
vt 0.000000 0.000000
vt 0.000000 0.000000
vt 0.000000 0.000000
vt 0.000000 0.000000
vt 0.000000 0.000000
vt 0.000000 0.000000
vt 0.000000 0.000000
vt 0.000000 0.000000
vt 0.000000 0.000000
vt 0.000000 0.000000
vt 0.000000 0.000000
vt 0.000000 0.000000
vt 0.000000 0.000000
vt 0.000000 0.000000
vt 0.000000 0.000000
vt 0.000000 0.000000
vt 0.000000 0.000000
vt 0.000000 0.000000
vt 0.000000 0.000000
vt 0.000000 0.000000
vt 0.000000 0.000000
vt 0.000000 0.000000
vt 0.000000 0.000000
vt 0.000000 0.000000
vt 0.000000 0.000000
vt 0.000000 0.000000
vt 0.000000 0.000000
vt 0.000000 0.000000
vt 0.000000 0.000000
vt 0.000000 0.000000
vt 0.000000 0.000000
vt 0.000000 0.000000
vt 0.000000 0.000000
vt 0.000000 0.000000
vt 0.000000 0.000000
vt 0.000000 0.000000
vt 0.000000 0.000000
vt 0.000000 0.000000
vt 0.000000 0.000000
vt 0.000000 0.000000
vt 0.000000 0.000000
vt 0.000000 0.000000
vt 0.000000 0.000000
vt 0.000000 0.000000
vt 0.000000 0.000000
vt 0.000000 0.000000
vt 0.000000 0.000000
vt 0.000000 0.000000
vt 0.000000 0.000000
vt 0.000000 0.000000
vt 0.000000 0.000000
vt 0.000000 0.000000
vt 0.000000 0.000000
vt 0.000000 0.000000
vt 0.000000 0.000000
vt 0.000000 0.000000
vt 0.000000 0.000000
vt 0.000000 0.000000
vt 0.000000 0.000000
vt 0.000000 0.000000
vt 0.000000 0.000000
vn 0.0000 1.0000 0.0000
vn -0.5556 0.0000 -0.8315
vn 0.0132 -0.9999 0.0026
vn -0.3659 -0.9278 -0.0728
vn 0.0132 -0.9999 -0.0026
vn -0.3659 -0.9278 0.0728
vn 0.0112 -0.9999 -0.0075
vn -0.3102 -0.9278 0.2073
vn 0.0075 -0.9999 -0.0112
vn -0.2073 -0.9278 0.3102
vn 0.2603 -0.9538 -0.1503
vn 0.2603 -0.9538 0.1503
vn -0.0728 -0.9278 0.3659
vn -0.0728 -0.9278 -0.3659
vn 0.0075 -0.9999 0.0112
vn -0.2073 -0.9278 -0.3102
vn 0.0112 -0.9999 0.0075
vn -0.3102 -0.9278 -0.2073
vn -0.1053 -0.9819 0.1576
vn 0.8315 0.0000 0.5556
vn -0.8315 0.0000 -0.5556
vn 0.9808 0.0000 0.1951
vn -0.9808 0.0000 -0.1951
vn 0.9808 0.0000 -0.1951
vn -0.9808 0.0000 0.1951
vn 0.8315 0.0000 -0.5556
vn -0.8315 0.0000 0.5556
vn 0.5556 0.0000 -0.8315
vn -0.5556 0.0000 0.8315
vn 0.1951 0.0000 -0.9808
vn 0.1951 0.0000 0.9808
vn -0.1951 0.0000 0.9808
vn -0.1951 0.0000 -0.9808
vn 0.5556 0.0000 0.8315
vn 0.0249 -0.9801 -0.1971
vn 0.0249 -0.9801 0.1971
vn -0.0370 -0.9819 0.1859
vn -0.0370 -0.9819 -0.1859
vn 0.1149 -0.9784 0.1719
vn -0.1053 -0.9819 -0.1576
vn 0.2484 -0.9654 0.0791
vn -0.1576 -0.9819 -0.1053
vn 0.2882 -0.9558 0.0573
vn -0.1859 -0.9819 -0.0370
vn 0.2882 -0.9558 -0.0573
vn -0.1859 -0.9819 0.0370
vn 0.2484 -0.9654 -0.0791
vn -0.1576 -0.9819 0.1053
vn 0.1149 -0.9784 -0.1719
vn -0.4658 -0.5449 -0.6972
vn -0.3608 -0.7604 0.5400
vn 0.6972 -0.5449 0.4658
vn -0.6972 -0.5449 -0.4658
vn 0.8224 -0.5449 0.1636
vn -0.8224 -0.5449 -0.1636
vn 0.8224 -0.5449 -0.1636
vn -0.8224 -0.5449 0.1636
vn 0.6972 -0.5449 -0.4658
vn -0.6972 -0.5449 0.4658
vn 0.4658 -0.5449 -0.6972
vn -0.4658 -0.5449 0.6972
vn 0.1636 -0.5449 -0.8224
vn 0.1636 -0.5449 0.8224
vn -0.1636 -0.5449 0.8224
vn -0.1636 -0.5449 -0.8224
vn 0.4658 -0.5449 0.6972
vn 0.1267 -0.7604 -0.6370
vn 0.1267 -0.7604 0.6370
vn -0.1267 -0.7604 0.6370
vn -0.1267 -0.7604 -0.6370
vn 0.3608 -0.7604 0.5400
vn -0.3608 -0.7604 -0.5400
vn 0.5400 -0.7604 0.3608
vn -0.5400 -0.7604 -0.3608
vn 0.6370 -0.7604 0.1267
vn -0.6370 -0.7604 -0.1267
vn 0.6370 -0.7604 -0.1267
vn -0.6370 -0.7604 0.1267
vn 0.5400 -0.7604 -0.3608
vn -0.5400 -0.7604 0.3608
vn 0.3608 -0.7604 -0.5400
vn 0.0000 -1.0000 -0.0000
vn 0.0132 0.9999 0.0026
vn -0.3659 0.9278 -0.0728
vn 0.0132 0.9999 -0.0026
vn -0.3659 0.9278 0.0728
vn 0.0112 0.9999 -0.0075
vn -0.3102 0.9278 0.2073
vn 0.0075 0.9999 -0.0112
vn -0.2073 0.9278 0.3102
vn 0.2603 0.9538 -0.1503
vn 0.2603 0.9538 0.1503
vn -0.0728 0.9278 0.3659
vn -0.0728 0.9278 -0.3659
vn 0.0075 0.9999 0.0112
vn -0.2073 0.9278 -0.3102
vn 0.0112 0.9999 0.0075
vn -0.3102 0.9278 -0.2073
vn -0.1053 0.9819 0.1576
vn 0.0249 0.9801 -0.1971
vn 0.0249 0.9801 0.1971
vn -0.0370 0.9819 0.1859
vn -0.0370 0.9819 -0.1859
vn 0.1149 0.9784 0.1719
vn -0.1053 0.9819 -0.1576
vn 0.2484 0.9654 0.0791
vn -0.1576 0.9819 -0.1053
vn 0.2882 0.9558 0.0573
vn -0.1859 0.9819 -0.0370
vn 0.2882 0.9558 -0.0573
vn -0.1859 0.9819 0.0370
vn 0.2484 0.9654 -0.0791
vn -0.1576 0.9819 0.1053
vn 0.1149 0.9784 -0.1719
vn -0.4658 0.5449 -0.6972
vn -0.3608 0.7604 0.5400
vn 0.6972 0.5449 0.4658
vn -0.6972 0.5449 -0.4658
vn 0.8224 0.5449 0.1636
vn -0.8224 0.5449 -0.1636
vn 0.8224 0.5449 -0.1636
vn -0.8224 0.5449 0.1636
vn 0.6972 0.5449 -0.4658
vn -0.6972 0.5449 0.4658
vn 0.4658 0.5449 -0.6972
vn -0.4658 0.5449 0.6972
vn 0.1636 0.5449 -0.8224
vn 0.1636 0.5449 0.8224
vn -0.1636 0.5449 0.8224
vn -0.1636 0.5449 -0.8224
vn 0.4658 0.5449 0.6972
vn 0.1267 0.7604 -0.6370
vn 0.1267 0.7604 0.6370
vn -0.1267 0.7604 0.6370
vn -0.1267 0.7604 -0.6370
vn 0.3608 0.7604 0.5400
vn -0.3608 0.7604 -0.5400
vn 0.5400 0.7604 0.3608
vn -0.5400 0.7604 -0.3608
vn 0.6370 0.7604 0.1267
vn -0.6370 0.7604 -0.1267
vn 0.6370 0.7604 -0.1267
vn -0.6370 0.7604 0.1267
vn 0.5400 0.7604 -0.3608
vn -0.5400 0.7604 0.3608
vn 0.3608 0.7604 -0.5400
usemtl B
s off
f 2/1/1 3/2/1 4/3/1 5/4/1 6/5/1 7/6/1 8/7/1 9/8/1 10/9/1 11/10/1 12/11/1 13/12/1 14/13/1 15/14/1 16/15/1 1/16/1
f 26/17/2 42/18/2 43/19/2 27/20/2
f 4/3/3 20/21/3 21/22/3 5/4/3
f 12/11/4 28/23/4 29/24/4 13/12/4
f 5/4/5 21/22/5 22/25/5 6/5/5
f 13/12/6 29/24/6 30/26/6 14/13/6
f 6/5/7 22/25/7 23/27/7 7/6/7
f 14/13/8 30/26/8 31/28/8 15/14/8
f 7/6/9 23/27/9 24/29/9 8/7/9
f 15/14/10 31/28/10 32/30/10 16/15/10
f 8/7/11 24/29/11 25/31/11 9/8/11
f 1/16/12 17/32/12 18/33/12 2/1/12
f 16/15/13 32/30/13 17/32/13 1/16/13
f 9/8/14 25/31/14 26/17/14 10/9/14
f 2/1/15 18/33/15 19/34/15 3/2/15
f 10/9/16 26/17/16 27/20/16 11/10/16
f 3/2/17 19/34/17 20/21/17 4/3/17
f 11/10/18 27/20/18 28/23/18 12/11/18
f 47/35/19 63/36/19 64/37/19 48/38/19
f 19/34/20 35/39/20 36/40/20 20/21/20
f 27/20/21 43/19/21 44/41/21 28/23/21
f 20/21/22 36/40/22 37/42/22 21/22/22
f 28/23/23 44/41/23 45/43/23 29/24/23
f 21/22/24 37/42/24 38/44/24 22/25/24
f 29/24/25 45/43/25 46/45/25 30/26/25
f 22/25/26 38/44/26 39/46/26 23/27/26
f 30/26/27 46/45/27 47/35/27 31/28/27
f 23/27/28 39/46/28 40/47/28 24/29/28
f 31/28/29 47/35/29 48/38/29 32/30/29
f 24/29/30 40/47/30 41/48/30 25/31/30
f 17/32/31 33/49/31 34/50/31 18/33/31
f 32/30/32 48/38/32 33/49/32 17/32/32
f 25/31/33 41/48/33 42/18/33 26/17/33
f 18/33/34 34/50/34 35/39/34 19/34/34
f 61/51/25 77/52/25 78/53/25 62/54/25
f 40/47/35 56/55/35 57/56/35 41/48/35
f 33/49/36 49/57/36 50/58/36 34/50/36
f 48/38/37 64/37/37 49/57/37 33/49/37
f 41/48/38 57/56/38 58/59/38 42/18/38
f 34/50/39 50/58/39 51/60/39 35/39/39
f 42/18/40 58/59/40 59/61/40 43/19/40
f 35/39/41 51/60/41 52/62/41 36/40/41
f 43/19/42 59/61/42 60/63/42 44/41/42
f 36/40/43 52/62/43 53/64/43 37/42/43
f 44/41/44 60/63/44 61/51/44 45/43/44
f 37/42/45 53/64/45 54/65/45 38/44/45
f 45/43/46 61/51/46 62/54/46 46/45/46
f 38/44/47 54/65/47 55/66/47 39/46/47
f 46/45/48 62/54/48 63/36/48 47/35/48
f 39/46/49 55/66/49 56/55/49 40/47/49
f 74/67/50 90/68/50 91/69/50 75/70/50
f 54/65/26 70/71/26 71/72/26 55/66/26
f 62/54/27 78/53/27 79/73/27 63/36/27
f 55/66/28 71/72/28 72/74/28 56/55/28
f 63/36/29 79/73/29 80/75/29 64/37/29
f 56/55/30 72/74/30 73/76/30 57/56/30
f 49/57/31 65/77/31 66/78/31 50/58/31
f 64/37/32 80/75/32 65/77/32 49/57/32
f 57/56/33 73/76/33 74/67/33 58/59/33
f 50/58/34 66/78/34 67/79/34 51/60/34
f 58/59/2 74/67/2 75/70/2 59/61/2
f 51/60/20 67/79/20 68/80/20 52/62/20
f 59/61/21 75/70/21 76/81/21 60/63/21
f 52/62/22 68/80/22 69/82/22 53/64/22
f 60/63/23 76/81/23 77/52/23 61/51/23
f 53/64/24 69/82/24 70/71/24 54/65/24
f 95/83/51 97/84/51 96/85/51
f 67/79/52 83/86/52 84/87/52 68/80/52
f 75/70/53 91/69/53 92/88/53 76/81/53
f 68/80/54 84/87/54 85/89/54 69/82/54
f 76/81/55 92/88/55 93/90/55 77/52/55
f 69/82/56 85/89/56 86/91/56 70/71/56
f 77/52/57 93/90/57 94/92/57 78/53/57
f 70/71/58 86/91/58 87/93/58 71/72/58
f 78/53/59 94/92/59 95/83/59 79/73/59
f 71/72/60 87/93/60 88/94/60 72/74/60
f 79/73/61 95/83/61 96/85/61 80/75/61
f 72/74/62 88/94/62 89/95/62 73/76/62
f 65/77/63 81/96/63 82/97/63 66/78/63
f 80/75/64 96/85/64 81/96/64 65/77/64
f 73/76/65 89/95/65 90/68/65 74/67/65
f 66/78/66 82/97/66 83/86/66 67/79/66
f 88/94/67 97/84/67 89/95/67
f 81/96/68 97/84/68 82/97/68
f 96/85/69 97/84/69 81/96/69
f 89/95/70 97/84/70 90/68/70
f 82/97/71 97/84/71 83/86/71
f 90/68/72 97/84/72 91/69/72
f 83/86/73 97/84/73 84/87/73
f 91/69/74 97/84/74 92/88/74
f 84/87/75 97/84/75 85/89/75
f 92/88/76 97/84/76 93/90/76
f 85/89/77 97/84/77 86/91/77
f 93/90/78 97/84/78 94/92/78
f 86/91/79 97/84/79 87/93/79
f 94/92/80 97/84/80 95/83/80
f 87/93/81 97/84/81 88/94/81
f 99/98/82 98/99/82 113/100/82 112/101/82 111/102/82 110/103/82 109/104/82 108/105/82 107/106/82 106/107/82 105/108/82 104/109/82 103/110/82 102/111/82 101/112/82 100/113/82
f 123/114/2 124/115/2 140/116/2 139/117/2
f 101/112/83 102/111/83 118/118/83 117/119/83
f 109/104/84 110/103/84 126/120/84 125/121/84
f 102/111/85 103/110/85 119/122/85 118/118/85
f 110/103/86 111/102/86 127/123/86 126/120/86
f 103/110/87 104/109/87 120/124/87 119/122/87
f 111/102/88 112/101/88 128/125/88 127/123/88
f 104/109/89 105/108/89 121/126/89 120/124/89
f 112/101/90 113/100/90 129/127/90 128/125/90
f 105/108/91 106/107/91 122/128/91 121/126/91
f 98/99/92 99/98/92 115/129/92 114/130/92
f 113/100/93 98/99/93 114/130/93 129/127/93
f 106/107/94 107/106/94 123/114/94 122/128/94
f 99/98/95 100/113/95 116/131/95 115/129/95
f 107/106/96 108/105/96 124/115/96 123/114/96
f 100/113/97 101/112/97 117/119/97 116/131/97
f 108/105/98 109/104/98 125/121/98 124/115/98
f 144/132/99 145/133/99 161/134/99 160/135/99
f 116/131/20 117/119/20 133/136/20 132/137/20
f 124/115/21 125/121/21 141/138/21 140/116/21
f 117/119/22 118/118/22 134/139/22 133/136/22
f 125/121/23 126/120/23 142/140/23 141/138/23
f 118/118/24 119/122/24 135/141/24 134/139/24
f 126/120/25 127/123/25 143/142/25 142/140/25
f 119/122/26 120/124/26 136/143/26 135/141/26
f 127/123/27 128/125/27 144/132/27 143/142/27
f 120/124/28 121/126/28 137/144/28 136/143/28
f 128/125/29 129/127/29 145/133/29 144/132/29
f 121/126/30 122/128/30 138/145/30 137/144/30
f 114/130/31 115/129/31 131/146/31 130/147/31
f 129/127/32 114/130/32 130/147/32 145/133/32
f 122/128/33 123/114/33 139/117/33 138/145/33
f 115/129/34 116/131/34 132/137/34 131/146/34
f 158/148/25 159/149/25 175/150/25 174/151/25
f 137/144/100 138/145/100 154/152/100 153/153/100
f 130/147/101 131/146/101 147/154/101 146/155/101
f 145/133/102 130/147/102 146/155/102 161/134/102
f 138/145/103 139/117/103 155/156/103 154/152/103
f 131/146/104 132/137/104 148/157/104 147/154/104
f 139/117/105 140/116/105 156/158/105 155/156/105
f 132/137/106 133/136/106 149/159/106 148/157/106
f 140/116/107 141/138/107 157/160/107 156/158/107
f 133/136/108 134/139/108 150/161/108 149/159/108
f 141/138/109 142/140/109 158/148/109 157/160/109
f 134/139/110 135/141/110 151/162/110 150/161/110
f 142/140/111 143/142/111 159/149/111 158/148/111
f 135/141/112 136/143/112 152/163/112 151/162/112
f 143/142/113 144/132/113 160/135/113 159/149/113
f 136/143/114 137/144/114 153/153/114 152/163/114
f 171/164/115 172/165/115 188/166/115 187/167/115
f 151/162/26 152/163/26 168/168/26 167/169/26
f 159/149/27 160/135/27 176/170/27 175/150/27
f 152/163/28 153/153/28 169/171/28 168/168/28
f 160/135/29 161/134/29 177/172/29 176/170/29
f 153/153/30 154/152/30 170/173/30 169/171/30
f 146/155/31 147/154/31 163/174/31 162/175/31
f 161/134/32 146/155/32 162/175/32 177/172/32
f 154/152/33 155/156/33 171/164/33 170/173/33
f 147/154/34 148/157/34 164/176/34 163/174/34
f 155/156/2 156/158/2 172/165/2 171/164/2
f 148/157/20 149/159/20 165/177/20 164/176/20
f 156/158/21 157/160/21 173/178/21 172/165/21
f 149/159/22 150/161/22 166/179/22 165/177/22
f 157/160/23 158/148/23 174/151/23 173/178/23
f 150/161/24 151/162/24 167/169/24 166/179/24
f 192/180/116 193/181/116 194/182/116
f 164/176/117 165/177/117 181/183/117 180/184/117
f 172/165/118 173/178/118 189/185/118 188/166/118
f 165/177/119 166/179/119 182/186/119 181/183/119
f 173/178/120 174/151/120 190/187/120 189/185/120
f 166/179/121 167/169/121 183/188/121 182/186/121
f 174/151/122 175/150/122 191/189/122 190/187/122
f 167/169/123 168/168/123 184/190/123 183/188/123
f 175/150/124 176/170/124 192/180/124 191/189/124
f 168/168/125 169/171/125 185/191/125 184/190/125
f 176/170/126 177/172/126 193/181/126 192/180/126
f 169/171/127 170/173/127 186/192/127 185/191/127
f 162/175/128 163/174/128 179/193/128 178/194/128
f 177/172/129 162/175/129 178/194/129 193/181/129
f 170/173/130 171/164/130 187/167/130 186/192/130
f 163/174/131 164/176/131 180/184/131 179/193/131
f 185/191/132 186/192/132 194/182/132
f 178/194/133 179/193/133 194/182/133
f 193/181/134 178/194/134 194/182/134
f 186/192/135 187/167/135 194/182/135
f 179/193/136 180/184/136 194/182/136
f 187/167/137 188/166/137 194/182/137
f 180/184/138 181/183/138 194/182/138
f 188/166/139 189/185/139 194/182/139
f 181/183/140 182/186/140 194/182/140
f 189/185/141 190/187/141 194/182/141
f 182/186/142 183/188/142 194/182/142
f 190/187/143 191/189/143 194/182/143
f 183/188/144 184/190/144 194/182/144
f 191/189/145 192/180/145 194/182/145
f 184/190/146 185/191/146 194/182/146
