# Blender v2.80 (sub 75) OBJ File: 'symbols.blend'
# www.blender.org
mtllib symbol_c_1.mtl
o UpgradeC1_Plane
v -0.453807 0.546193 1.000000
v -0.453807 -1.453807 1.000000
v -0.453807 0.546193 -1.000000
v -0.453807 -1.453807 -1.000000
v -0.453807 1.820025 -0.004303
v -0.453807 -0.004797 -0.004303
v 0.546193 0.546193 1.000000
v 0.546193 -1.453807 1.000000
v 0.546193 0.546193 -1.000000
v 0.546193 -1.453807 -1.000000
v 0.546193 1.820025 -0.004303
v 0.546193 -0.004797 -0.004303
vt 0.000000 0.502151
vt 0.000000 1.000000
vt 1.000000 1.000000
vt 1.000000 0.502151
vt 0.000000 0.000000
vt 1.000000 0.000000
vt 0.000000 0.502151
vt 1.000000 0.502151
vt 1.000000 1.000000
vt 0.000000 1.000000
vt 0.000000 0.000000
vt 1.000000 0.000000
vn -1.0000 0.0000 -0.0000
vn 1.0000 -0.0000 0.0000
vn 0.0000 -0.5663 0.8242
vn 0.0000 0.6191 0.7853
vn 0.0000 -0.5696 -0.8219
vn 0.0000 0.0000 -1.0000
vn 0.0000 0.0000 1.0000
vn 0.0000 0.6158 -0.7879
usemtl C
s off
f 5/1/1 3/2/1 4/3/1 6/4/1
f 1/5/1 5/1/1 6/4/1 2/6/1
f 11/7/2 12/8/2 10/9/2 9/10/2
f 7/11/2 8/12/2 12/8/2 11/7/2
f 6/4/3 4/3/3 10/9/3 12/8/3
f 5/1/4 1/5/4 7/11/4 11/7/4
f 2/6/5 6/4/5 12/8/5 8/12/5
f 4/3/6 3/2/6 9/10/6 10/9/6
f 1/5/7 2/6/7 8/12/7 7/11/7
f 3/2/8 5/1/8 11/7/8 9/10/8
